<?xml version="1.0" encoding="UTF-8" standalone="no"?>
<!-- Created with Inkscape (http://www.inkscape.org/) -->

<svg
   version="1.1"
   id="svg1"
   width="889.3125"
   height="378.78571"
   viewBox="0 0 889.3125 378.78571"
   sodipodi:docname="Mud_64.svg"
   inkscape:export-filename="Mud_512_blk.svg"
   inkscape:export-xdpi="10.231474"
   inkscape:export-ydpi="10.231474"
   xmlns:inkscape="http://www.inkscape.org/namespaces/inkscape"
   xmlns:sodipodi="http://sodipodi.sourceforge.net/DTD/sodipodi-0.dtd"
   xmlns="http://www.w3.org/2000/svg"
   xmlns:svg="http://www.w3.org/2000/svg">
  <defs
     id="defs1" />
  <sodipodi:namedview
     id="namedview1"
     pagecolor="#ffffff"
     bordercolor="#000000"
     borderopacity="0.25"
     inkscape:showpageshadow="2"
     inkscape:pageopacity="0.0"
     inkscape:pagecheckerboard="0"
     inkscape:deskcolor="#d1d1d1"
     inkscape:export-bgcolor="#ffffff00" />
  <g
     inkscape:groupmode="layer"
     inkscape:label="Image"
     id="g1"
     transform="translate(-166.20285,-679.73651)">
    <path
       id="path31"
       style="display:inline;fill:#000000;fill-opacity:1"
       d="m 1014.2012,679.7832 c -3.1347,0.1351 -6.4478,0.56574 -9.9356,1.30469 -40.11593,8.49918 -69.22719,64.37309 -83.28122,159.8457 l -1.74219,11.83399 -3.05274,-0.6875 c -9.04208,-2.03865 -11.57777,-2.39966 -17.14257,-2.43946 -43.08058,-0.30805 -87.41016,56.11737 -87.41016,111.26172 v 6.54883 l -8.25,7.07227 c -19.54807,16.75589 -35.52061,19.59393 -35.84375,6.36914 -0.49935,-20.43678 9.23991,-70.44094 20.11719,-103.29492 6.09542,-18.41083 1.32249,-27.05482 -14.98243,-27.13282 -13.02592,-0.0623 -17.94253,7.14996 -25.99023,38.13282 -10.13301,39.0111 -13.17963,49.07744 -18.03906,59.5957 -6.65893,14.4132 -15.29993,25.55134 -24.0586,32.87891 0.33668,-0.29253 0.67993,-0.59483 1.17383,-1.22461 0.62194,-0.79303 0.92466,-1.19839 0.87305,-1.25 -0.0516,-0.0516 -0.45697,0.24916 -1.25,0.87109 -0.9625,0.75485 -1.75,1.54235 -1.75,1.75 0,0.33124 0.1642,0.38752 0.4082,0.29492 -17.29574,14.14271 -34.90567,13.12152 -38.5293,-8.82031 -2.69281,-16.30573 8.995,-67.34743 22.57813,-98.5957 6.62301,-15.23639 1.62363,-23.5 -14.21875,-23.5 -13.03541,0 -17.86619,5.73576 -27.37109,32.5 -17.3,48.71385 -22.12642,87.2545 -14.05664,112.25 0.73855,2.28777 0.73537,3.25 -0.0137,3.25 -0.58522,0 -4.27002,3.03754 -8.1875,6.75004 -23.43484,22.2084 -58.36388,22.8827 -67.90625,1.3105 -5.15755,-11.65957 2.96214,-48.80851 27.41602,-125.42773 39.93252,-125.11723 41.2668,-171.60932 5.41211,-188.59766 -45.90902,-21.75214 -102.93322,24.09268 -133.66992,107.46485 -2.63598,7.14997 -4.80708,12.66962 -4.82617,12.26562 -0.0191,-0.40401 1.30209,-7.37904 2.93554,-15.5 14.58364,-72.50504 0.28566,-108.68744 -42.9707,-108.74414 -47.11885,-0.0618 -76.60349,30.07299 -113.52344,116.02734 -9.0172,20.99321 -10.26612,22.96162 -6.88281,10.84571 25.7981,-92.38525 14.00001,-130.56069 -39.59375,-128.1211 -61.95232,2.82011 -112.772,83.20101 -66.48828,105.16407 9.87771,4.68727 11.16051,3.88635 15.88867,-9.9375 6.78693,-19.84323 15.69149,-35.5194 25.01562,-45.84571 -0.002,0.0502 -0.27409,0.34571 -0.22656,0.34571 0.275,0 1.31506,-0.90001 2.31055,-2 0.90618,-1.00131 1.30576,-1.67844 1.19336,-1.82032 -1.10225,1.05386 -2.18458,2.26244 -3.27735,3.47266 1.09278,-1.21018 2.17509,-2.4188 3.27735,-3.47266 9.73104,-9.30377 19.72291,-12.57777 28.1543,-7.64062 6.29218,3.6845 9.45013,14.00514 9.80859,29.20898 -0.13606,-0.32843 -0.25965,-0.36942 -0.34961,-0.14648 -0.0914,0.22656 -0.14844,0.71094 -0.14844,1.39844 0,1.29213 0.20661,1.77357 0.46094,1.26757 0.003,0.78784 -0.0233,1.6246 -0.0352,2.4375 -0.11215,-0.20551 -0.22547,-0.40734 -0.30468,-0.32812 -0.10514,0.10514 -0.17718,0.45659 -0.20118,1.03906 -0.0408,0.99008 0.17605,1.50323 0.47657,1.29492 -0.65579,22.89428 -6.62543,54.7442 -18.08594,92.78907 -3.77188,12.52125 -55.46333,179.23314 -56.12891,181.02344 -0.56361,1.5159 11.74616,9.269 18.29297,11.5215 19.45937,6.695 30.18618,-1.7851 37.37305,-29.5449 15.70123,-60.64761 57.13797,-173.04958 80.40039,-218.09575 9.50441,-18.40468 19.73571,-32.74747 29.86914,-43.48633 0.005,-0.005 0.0105,-0.0102 0.0156,-0.0156 0.41262,-0.1205 1.34964,-1.02575 3.27149,-3.15234 l 2.15625,-2.38672 0.006,-0.006 c 36.6669,-34.10152 69.90409,-17.49505 58.93555,49.69922 -3.2881,20.14327 -6.81952,32.94948 -36.33204,131.72656 l -29.66601,99.28906 3.41797,2.9024 c 26.09768,22.1625 37.78406,13.5068 52.99023,-39.25591 38.23002,-132.65159 71.31949,-212.24282 102.25391,-244.8711 1.16499,-1.22878 2.32536,-2.34791 3.48437,-3.44336 6.6e-4,-6.1e-4 10e-4,-0.001 0.002,-0.002 6.6e-4,-8.6e-4 10e-4,-10e-4 0.002,-0.002 9.38106,-8.86531 18.57795,-13.45499 27.66211,-13.76953 -0.005,0.14576 0.22997,0.25974 0.9414,0.28906 0.82228,0.0339 1.21177,-0.12828 1.25196,-0.34766 32.22232,0.73334 31.23805,30.89269 -4.19141,143.42774 -41.99057,133.37536 -38.33118,170.95066 17.52344,179.96876 4.12497,0.666 8.175,1.3695 9,1.5625 1.87896,0.4397 3.90619,0.5785 5.9082,0.7676 -0.0318,0.01 -0.0643,-1e-4 -0.0957,0.018 -0.79773,0.3192 -0.56142,0.5555 0.60351,0.6035 0.87873,0.036 1.29911,-0.1445 1.26758,-0.3906 21.20254,1.2052 47.98236,-10.7014 66.47657,-30.3614 l 7.66015,-8.1426 3.83985,1.3477 c 26.67717,9.3732 59.56471,-7.7609 73.77734,-38.43752 3.03846,-6.55821 3.79585,-5.08611 2.97656,5.78125 -3.00741,39.89197 29.85775,46.06227 80.05664,15.03327 4.6009,-2.844 8.1273,-4.45401 8.3418,-3.81061 11.38427,34.15291 74.58818,30.96681 92.95508,-4.68555 4.5423,-8.81715 3.80688,-8.84716 9.23828,0.38282 16.95521,28.81344 48.34156,35.71584 83.60737,18.38864 12.6988,-6.2392 23.3376,-14.20545 31.2423,-22.35154 -1.7177,1.79364 -3.0094,3.32618 -2.7481,3.32618 0.275,0 2.0268,-1.57502 3.8925,-3.5 1.8659,-1.925 3.1676,-3.5 2.8926,-3.5 -0.2468,0 -1.8529,1.48813 -3.4941,3.14062 17.8523,-18.70361 20.9817,-38.20049 -0.035,-39.94336 l -5.4922,-0.45703 -4.1855,4.81836 c -43.25022,49.79177 -76.8274,48.49897 -79.40428,-3.05859 l -0.55078,-11 16.30078,-23.5 c 33.12751,-47.7587 43.63008,-64.51072 61.12118,-97.5 41.4472,-78.17254 34.4326,-142.34095 -12.588,-140.31446 z m -495.75589,66.21875 c -1.15908,1.09541 -2.31932,2.21451 -3.48437,3.44336 0.37015,-0.12577 1.46279,-1.0565 2.67578,-2.34765 0.56585,-0.60233 0.47834,-0.66681 0.80859,-1.09571 z m 489.07619,-24.2539 c 1.1742,0.0983 2.3475,0.36644 3.5156,0.81054 21.8797,8.31863 -0.5764,76.84029 -50.40038,153.79688 -7.96549,12.30324 -9.89248,15.02385 -9.95508,14.04687 -0.10305,-1.60795 8.27644,-57.62984 11.0332,-73.76367 10.16053,-59.46331 28.19276,-96.3651 45.80666,-94.89062 z M 398.55273,733.7207 c -0.34739,-0.0143 -0.74258,0.0489 -1.10351,0.19336 -0.79773,0.31922 -0.56142,0.55552 0.60351,0.60352 1.05416,0.0434 1.64479,-0.1931 1.3125,-0.52539 -0.16614,-0.16613 -0.4651,-0.25718 -0.8125,-0.27149 z m 453.99024,134.87696 c -0.275,0 -2.25802,1.8 -4.40625,4 -2.14824,2.19998 -3.68125,4 -3.40625,4 0.275,0 2.25801,-1.80002 4.40625,-4 2.14823,-2.2 3.68125,-4 3.40625,-4 z m 64.73242,15 -4.32812,27.25 c -8.20846,51.67275 -14.30889,67.6069 -28.69336,74.94531 -15.2665,7.78833 -28.84963,0.0797 -31.64844,-17.95899 -6.15055,-39.64115 26.0876,-84.07767 61.10156,-84.22265 z m -289.35937,70.37695 c -0.10514,0.10514 -0.17718,0.45659 -0.20118,1.03906 -0.0434,1.05416 0.19311,1.64479 0.52539,1.3125 0.33225,-0.33229 0.36893,-1.19415 0.0801,-1.91601 -0.15961,-0.39887 -0.29916,-0.54069 -0.40429,-0.43555 z m 183,5 c -0.10514,0.10514 -0.17718,0.45659 -0.20118,1.03906 -0.0434,1.05416 0.19311,1.64479 0.52539,1.3125 0.33225,-0.33229 0.36893,-1.19415 0.0801,-1.91601 -0.15961,-0.39887 -0.29916,-0.54069 -0.40429,-0.43555 z m 243.99998,6 c -0.1051,0.10514 -0.1772,0.45659 -0.2012,1.03906 -0.043,1.05416 0.1931,1.64479 0.5254,1.3125 0.3324,-0.33229 0.3691,-1.19415 0.08,-1.91601 -0.1596,-0.39887 -0.2991,-0.54069 -0.4043,-0.43555 z m -244.27928,1.62305 c -0.0516,-0.0516 -0.45697,0.24916 -1.25,0.87109 -0.9625,0.75485 -1.75,1.54235 -1.75,1.75 0,0.82304 0.82058,0.29464 2.12695,-1.37109 0.62194,-0.79303 0.92466,-1.19839 0.87305,-1.25 z m -95.15234,38.00004 c -0.27499,0 -1.55591,1.125 -2.84766,2.5 -1.29175,1.375 -2.12461,2.5 -1.84961,2.5 0.275,0 1.55786,-1.125 2.84961,-2.5 1.29175,-1.375 2.12265,-2.5 1.84766,-2.5 z m -66.59766,13.0136 c 0.9625,-0.01 1.75,0.4364 1.75,0.9864 0,1.2196 -0.11279,1.2196 -2,0 -1.2819,-0.8284 -1.24555,-0.9734 0.25,-0.9864 z m 112.5,6.3242 c -0.6875,0.2774 -0.125,0.504 1.25,0.504 1.375,0 1.9375,-0.2266 1.25,-0.504 -0.6875,-0.2774 -1.8125,-0.2774 -2.5,0 z" />
  </g>
</svg>
