<?xml version="1.0" encoding="UTF-8" standalone="no"?>
<!-- Created with Inkscape (http://www.inkscape.org/) -->

<svg
   version="1.1"
   id="svg1"
   width="571.53003"
   height="571.44006"
   viewBox="0 0 571.53003 571.44006"
   sodipodi:docname="Mud_64.svg"
   inkscape:export-filename="Mud_512_blk.svg"
   inkscape:export-xdpi="10.231474"
   inkscape:export-ydpi="10.231474"
   xmlns:inkscape="http://www.inkscape.org/namespaces/inkscape"
   xmlns:sodipodi="http://sodipodi.sourceforge.net/DTD/sodipodi-0.dtd"
   xmlns="http://www.w3.org/2000/svg"
   xmlns:svg="http://www.w3.org/2000/svg">
  <defs
     id="defs1" />
  <sodipodi:namedview
     id="namedview1"
     pagecolor="#ffffff"
     bordercolor="#000000"
     borderopacity="0.25"
     inkscape:showpageshadow="2"
     inkscape:pageopacity="0.0"
     inkscape:pagecheckerboard="0"
     inkscape:deskcolor="#d1d1d1"
     inkscape:export-bgcolor="#ffffff00" />
  <g
     inkscape:groupmode="layer"
     id="layer1"
     inkscape:label="shovel"
     transform="translate(-216.836,-112.95)">
    <path
       d="m 313.76733,680.83759 c -25.78001,-4.53327 -39.2004,-6.85738 -43.5,-7.53322 -2.42406,-0.38103 -11.84428,-2.0664 -21.5,-3.84656 -0.825,-0.1521 -3.79838,-0.5876 -6.60751,-0.96778 -6.20653,-0.83997 -11.17503,-3.68504 -11.80836,-6.76173 -0.25825,-1.25456 -0.9354,-4.53102 -1.50478,-7.28102 -0.56938,-2.75 -2.18404,-11.975 -3.58814,-20.5 -1.4041,-8.525 -3.43166,-20.225 -4.5057,-26 -1.07404,-5.775 -2.63224,-14.775 -3.46266,-20 -0.83043,-5.225 -2.18779,-13.02709 -3.01636,-17.33797 -4.09967,-21.32976 0.74234,-44.82689 12.28805,-59.63101 6.92162,-8.87503 111.85183,-112.95258 114.53251,-113.60182 4.64615,-1.12527 7.00091,0.78162 33.76667,27.34439 l 25.59373,25.39961 124.22563,-124.26737 c 85.37867,-85.40735 124.06815,-124.75809 123.72201,-125.8366 -0.277,-0.86308 -1.18846,-3.36923 -2.02547,-5.56923 -6.17265,-16.22424 -2.6579,-22.76593 29.69444,-55.26764 35.70687,-35.87172 27.23921,-36.92833 73.44594,9.16468 l 36.25,36.16078 v 4.4292 4.42919 l -27.1621,27.22808 c -34.23942,34.32259 -41.4871,38.02642 -57.76246,29.51871 l -4.42456,-2.31287 -124.57158,124.57158 -124.57158,124.57158 25.74633,25.76062 c 27.10553,27.12058 28.68638,29.21965 26.22787,34.82569 -1.32801,3.02822 -108.67955,110.53136 -113.98192,114.14289 -20.13797,13.71629 -34.88231,15.60683 -71.5,9.16782 z m 47.2644,-18.66299 c 3.17042,-1.02087 6.29792,-2.38964 6.95,-3.04172 0.65208,-0.65208 1.84812,-1.1856 2.65786,-1.1856 0.80975,0 18.38225,-16.86483 39.05,-37.4774 l 37.57774,-37.47739 -18.98163,-19.0141 -18.98162,-19.01409 6.96349,-7.01726 6.96349,-7.01726 19.03537,19.0166 19.03537,19.01659 7.46879,-7.51897 7.4688,-7.51898 -65.98319,-65.98887 c -36.29075,-36.29388 -66.44654,-65.98887 -67.01285,-65.98887 -0.56631,0 -4.16048,3.155 -7.98704,7.01111 l -6.95739,7.01111 39.96841,39.97778 39.96841,39.97778 -6.96846,7.02227 -6.96847,7.02228 -40.03339,-40.02424 -40.03339,-40.02424 -36.57445,36.76307 c -51.65943,51.92588 -49.78599,46.45007 -38.412,112.27269 8.68,50.23219 8.60906,49.88995 10.45327,50.43094 2.46286,0.72247 23.53925,4.44811 68.06848,12.03235 8.525,1.45198 16.175,2.8174 17,3.03427 3.57994,0.94106 20.9419,-0.56603 26.2644,-2.27985 z m -6.24384,-115.368 c -6.07473,-2.36336 -8.45349,-8.18765 -5.59871,-13.70819 4.47011,-8.64424 16.94638,-6.28018 18.25263,3.45859 0.92366,6.88638 -6.28672,12.72674 -12.65392,10.2496 z m 118.47804,-122.8479 -9.50249,-9.50248 -24.7369,24.7369 -24.7369,24.7369 9.47528,9.51484 9.47527,9.51484 24.76412,-24.74926 24.76411,-24.74925 z m 116.49197,-97.50199 92.48651,-92.49056 -8.96769,-9.00944 c -4.93223,-4.95519 -9.42616,-9.00943 -9.98651,-9.00943 -1.30832,0 -184.52288,183.17018 -184.52288,184.47818 0,0.99421 17.01599,18.52182 17.98118,18.52182 0.28758,0 42.1418,-41.62076 93.00939,-92.49057 z m 137.68034,-102.75943 9.37161,-9.25 -27.06465,-27 -27.06465,-27 -8.79879,9.03424 c -14.1961,14.576 -14.48655,13.6718 13.27836,41.33676 27.77511,27.67511 25.89618,27.07431 40.27812,12.879 z m 29.34255,-29.26363 5.44514,-5.51363 -26.47222,-26.48637 c -30.1123,-30.12839 -26.83056,-28.05951 -33.71869,-21.25695 l -5.29519,5.22942 26.7568,26.77058 c 14.71625,14.72382 27.00031,26.77058 27.29792,26.77058 0.2976,0 2.99141,-2.48113 5.98624,-5.51363 z"
       style="display:inline;fill:#000000;fill-opacity:1"
       id="path1" />
  </g>
</svg>
