<?xml version="1.0" encoding="UTF-8" standalone="no"?>
<!-- Created with Inkscape (http://www.inkscape.org/) -->

<svg
   version="1.1"
   id="svg1"
   width="1201"
   height="1201"
   viewBox="0 0 1201 1201"
   xmlns="http://www.w3.org/2000/svg"
   xmlns:svg="http://www.w3.org/2000/svg">
  <g
     id="g1">
    <path
       style="display:none;fill:#e1dfdd;stroke:none"
       d="m 912.01937,389.71831 c -52.9353,-19.97083 -94.9809,41.03644 -104.88037,85 -1.89435,8.41296 0.16632,19.1665 -2.72302,27 -3.34784,9.07672 -25.92072,26.4916 -36.39197,23.95758 -12.0694,-2.92084 -5.54956,-24.81653 -4.42822,-32.95758 3.52209,-25.57129 10.18389,-50.24286 17.28234,-75 2.92756,-10.21045 7.89551,-21.57532 -3.87341,-28.08411 -21.59167,-11.94128 -30.7442,11.74549 -35.40668,28.08411 -8.74298,30.63794 -13.26001,66.12042 -34.86804,91 -7.64709,8.80487 -20.72326,21.0439 -33.71063,18.03241 -15.05615,-3.49127 -15.17566,-22.8158 -13.71448,-35.03241 2.57184,-21.50317 9.36536,-42.72522 16.7677,-63 2.99512,-8.20343 10.80518,-22.19067 9.33954,-31 -1.27637,-7.67188 -10.86413,-10.25256 -17.39276,-10.82562 -16.0069,-1.40497 -21.78064,14.52459 -26.42358,26.82562 -11.04316,29.25793 -18.39923,58.78394 -20.48694,90 -0.54804,8.19482 6.19464,23.41504 2.97149,30.4244 -9.89795,21.5249 -51.37555,34.3787 -68.95605,16.4822 -17.0036,-17.3091 0.80841,-60.03136 6.47375,-79.9066 15.47077,-54.27496 35.64039,-107.14197 45.00776,-163 4.05841,-24.20068 5.66717,-54.8457 -14.59028,-72.81482 -17.33136,-15.3736 -46.81848,-12.02093 -65.99615,-2.4259 -36.13733,18.0802 -72.93896,69.77636 -79,110.24072 h -1 c 3.77805,-29.25482 12.10443,-58.79102 2.48071,-88 -11.8417,-35.94086 -54.45566,-36.49268 -83.48071,-21.11035 -38.74646,20.5343 -71.07843,81.24243 -81,123.11035 h -1 c 7.12051,-34.40656 30.43912,-89.03528 2.67438,-119.90973 -11.02442,-12.25922 -29.27033,-14.28351 -44.67438,-13.17902 -40.17015,2.88013 -80.85905,38.44965 -81.87114,80.08875 -0.24712,10.16711 18.26611,37.56958 30.30786,26.39661 4.49532,-4.17102 6.07025,-15.68128 8.36344,-21.39661 5.66267,-14.11316 13.51933,-29.62048 25.2037,-39.6991 39.96962,-34.47644 37.20717,38.48297 33.38194,59.6991 -11.91061,66.06073 -36.79072,129.88342 -56.10571,194 -7.04544,23.3875 -28.8856,61.9279 11.71991,62.9854 29.19232,0.7602 31.36868,-39.627 38.33026,-60.9854 21.58774,-66.23218 41.30563,-136.17755 76.09723,-197 12.26715,-21.44537 45.18512,-72.21539 76.57251,-53.77234 19.42444,11.41364 15.26535,44.16162 12.24615,62.77234 -9.54504,58.83691 -31.86285,116.98212 -48.96606,174 -6.62048,22.071 -32.76569,78.7592 14.71991,69.6597 9.63647,-1.8466 14.56613,-12.2743 17.32947,-20.6597 6.9534,-21.1002 12.10449,-42.78479 18.69598,-64 17.52103,-56.39264 36.26111,-113.07367 62.72763,-166 10.85233,-21.7019 26.38144,-49.48816 50.24692,-58.73224 38.00433,-14.72064 35.48248,31.31659 31,53.73224 -11.29395,56.47772 -34.07141,109.76721 -46.2099,166 -4.93127,22.84467 -12.638,51.7104 -1.80865,74 16.79119,34.5605 70.83465,37.8401 101.01855,20.5725 10.72168,-6.1335 21.3161,-22.579 32.00385,-26.2198 6.03582,-2.0563 15.35003,3.0296 21.99615,2.4737 24.67548,-2.0642 49.95905,-20.3843 57,-44.8264 h 1 c -0.0218,7.896 -1.61273,15.1508 0.23608,23 10.77655,45.7524 66.6001,6.5628 88.76392,-3 17.9588,46.3545 82.73596,22.2605 97,-12 23.03436,39.4656 63.07092,45.1357 101.00003,19.9962 12.5101,-8.2919 40.6162,-29.04515 34.1212,-46.99235 -3.0997,-8.56531 -15.0484,-13.74811 -22.8319,-8.1142 -18.0826,13.08887 -67.54141,70.27575 -78.8395,15.11035 -7.11609,-34.74597 22.25171,-60.55237 40.55017,-88 30.29263,-45.43896 60.61573,-96.94427 61.98543,-153 1.3309,-54.47198 -55.23793,-57.08459 -85.89516,-24 -35.83801,38.6756 -40.81213,100.7561 -50.09027,150 m 34,36 c -3.80719,-9.33423 2.29468,-28.09717 3.91974,-38 5.4212,-33.03528 9.95959,-65.61139 22.2832,-97 4.69727,-11.96411 13.79476,-34.91882 30.79319,-30.68134 14.4823,3.61023 7.4077,34.93421 4.7107,44.68134 -12.34893,44.63019 -37.7642,82.021 -61.70683,121 m -500,-83 v 3 h -1 l 1,-3 m 464,78 c -0.62665,14.5976 -4.27106,29.57196 -6.58948,44 -2.77447,17.26587 -5.47064,39.93884 -18.5841,52.81482 -8.38373,8.23187 -23.8014,11.44418 -32.61347,2.08026 -8.1427,-8.65265 -7.33349,-24.94177 -5.62268,-35.89508 5.43176,-34.77667 28.73468,-58.61774 63.40973,-63 z"
       id="path3963" />
    <g
       id="g3964"
       transform="translate(-16.363396,-9.4029996)">
      <path
         style="fill:#f8f8f6"
         d="m 604.8125,1067.3169 c 0.72187,-0.2889 1.58438,-0.2534 1.91667,0.079 0.33229,0.3323 -0.25834,0.5687 -1.3125,0.5253 -1.16495,-0.048 -1.4019,-0.285 -0.60417,-0.6042 z m -205,-14 c 0.72187,-0.2889 1.58438,-0.2534 1.91667,0.079 0.33229,0.3323 -0.25834,0.5687 -1.3125,0.5253 -1.16495,-0.048 -1.4019,-0.285 -0.60417,-0.6042 z m 375,-20 c 0.72187,-0.2889 1.58438,-0.2534 1.91667,0.079 0.33229,0.3323 -0.25834,0.5687 -1.3125,0.5253 -1.16495,-0.048 -1.4019,-0.285 -0.60417,-0.6042 z m 220,-1 c 0.72187,-0.2889 1.58438,-0.2534 1.91667,0.079 0.33229,0.3323 -0.25834,0.5687 -1.3125,0.5253 -1.16495,-0.048 -1.4019,-0.285 -0.60417,-0.6042 z M 921,1018.6224 c 0,-0.2076 0.7875,-0.9951 1.75,-1.75 1.58606,-1.2438 1.62143,-1.2085 0.37756,0.3776 -1.30637,1.6657 -2.12756,2.1955 -2.12756,1.3724 z M 530.29966,1010 c 0,-3.025 0.18747,-4.2625 0.41659,-2.75 0.22913,1.5125 0.22913,3.9875 0,5.5 -0.22912,1.5125 -0.41659,0.275 -0.41659,-2.75 z M 1049.5,1006 c 0.9955,-1.1 2.035,-2 2.31,-2 0.275,0 -0.3145,0.9 -1.31,2 -0.9955,1.1 -2.035,2 -2.31,2 -0.275,0 0.3145,-0.9 1.31,-2 z M 723,987.68709 c 0,-0.1721 1.4625,-1.6346 3.25,-3.25 l 3.25,-2.93709 -2.93709,3.25 C 723.82513,987.77946 723,988.45965 723,987.68709 Z m 61.07895,-1.27042 c 0.048,-1.16495 0.28494,-1.4019 0.60416,-0.60417 0.28887,0.72187 0.25335,1.58438 -0.0789,1.91667 -0.33229,0.33229 -0.56864,-0.25834 -0.52522,-1.3125 z M 815,986.62244 c 0,-0.20765 0.7875,-0.99515 1.75,-1.75 1.58606,-1.24387 1.62143,-1.2085 0.37756,0.37756 C 815.82119,986.91575 815,987.44548 815,986.62244 Z M 827.15789,966 c 0,-1.375 0.22698,-1.9375 0.50439,-1.25 0.27741,0.6875 0.27741,1.8125 0,2.5 -0.27741,0.6875 -0.50439,0.125 -0.50439,-1.25 z m -40.07894,-4.58333 c 0.048,-1.16495 0.28494,-1.4019 0.60416,-0.60417 0.28887,0.72187 0.25335,1.58438 -0.0789,1.91667 -0.33229,0.33229 -0.56864,-0.25834 -0.52522,-1.3125 z m -104,-2 c 0.048,-1.16495 0.28494,-1.4019 0.60416,-0.60417 0.28887,0.72187 0.25335,1.58438 -0.0789,1.91667 -0.33229,0.33229 -0.56864,-0.25834 -0.52522,-1.3125 z m -38,-5 c 0.048,-1.16495 0.28494,-1.4019 0.60416,-0.60417 0.28887,0.72187 0.25335,1.58438 -0.0789,1.91667 -0.33229,0.33229 -0.56864,-0.25834 -0.52522,-1.3125 z m 146,-15 c 0.048,-1.16495 0.28494,-1.4019 0.60416,-0.60417 0.28887,0.72187 0.25335,1.58438 -0.0789,1.91667 -0.33229,0.33229 -0.56864,-0.25834 -0.52522,-1.3125 z M 687.25,858.31067 c 0.9625,-0.25152 2.5375,-0.25152 3.5,0 0.9625,0.25153 0.175,0.45733 -1.75,0.45733 -1.925,0 -2.7125,-0.2058 -1.75,-0.45733 z m 100,0 c 0.9625,-0.25152 2.5375,-0.25152 3.5,0 0.9625,0.25153 0.175,0.45733 -1.75,0.45733 -1.925,0 -2.7125,-0.2058 -1.75,-0.45733 z m 123.5625,0.006 c 0.72187,-0.28887 1.58438,-0.25335 1.91667,0.0789 0.33229,0.33229 -0.25834,0.56864 -1.3125,0.52522 -1.16495,-0.048 -1.4019,-0.28494 -0.60417,-0.60416 z M 207.26903,804.30701 c 0.97297,-0.25354 2.32297,-0.23687 3,0.0371 0.67703,0.27393 -0.11903,0.48137 -1.76903,0.46099 -1.65,-0.0204 -2.20394,-0.2445 -1.23097,-0.49804 z M 188.92431,794.25 186.5,791.5 l 2.75,2.42431 c 2.57029,2.26589 3.20859,3.07569 2.42431,3.07569 -0.17912,0 -1.41662,-1.2375 -2.75,-2.75 z m 398.15464,-24.83333 c 0.048,-1.16495 0.28494,-1.4019 0.60416,-0.60417 0.28887,0.72187 0.25335,1.58438 -0.0789,1.91667 -0.33229,0.33229 -0.56864,-0.25834 -0.52522,-1.3125 z M 518,728.5 c 1.29175,-1.375 2.57363,-2.5 2.84863,-2.5 0.275,0 -0.55688,1.125 -1.84863,2.5 -1.29175,1.375 -2.57363,2.5 -2.84863,2.5 -0.275,0 0.55688,-1.125 1.84863,-2.5 z m -316,-0.81291 c 0,-0.1721 1.4625,-1.6346 3.25,-3.25 l 3.25,-2.93709 -2.93709,3.25 C 202.82513,727.77946 202,728.45965 202,727.68709 Z m 320,-3.06465 c 0,-0.20765 0.7875,-0.99515 1.75,-1.75 1.58606,-1.24387 1.62143,-1.2085 0.37756,0.37756 C 522.82119,724.91575 522,725.44548 522,724.62244 Z m 58.25,-28.31177 c 0.9625,-0.25152 2.5375,-0.25152 3.5,0 0.9625,0.25153 0.175,0.45733 -1.75,0.45733 -1.925,0 -2.7125,-0.2058 -1.75,-0.45733 z m -146.5,-13.97295 c 0.6875,-0.27741 1.8125,-0.27741 2.5,0 0.6875,0.27741 0.125,0.50439 -1.25,0.50439 -1.375,0 -1.9375,-0.22698 -1.25,-0.50439 z m 20.0625,-0.0208 c 0.72187,-0.28887 1.58438,-0.25335 1.91667,0.0789 0.33229,0.33229 -0.25834,0.56864 -1.3125,0.52522 -1.16495,-0.048 -1.4019,-0.28494 -0.60417,-0.60416 z m -26,-1 c 0.72187,-0.28887 1.58438,-0.25335 1.91667,0.0789 0.33229,0.33229 -0.25834,0.56864 -1.3125,0.52522 -1.16495,-0.048 -1.4019,-0.28494 -0.60417,-0.60416 z m 32,0 c 0.72187,-0.28887 1.58438,-0.25335 1.91667,0.0789 0.33229,0.33229 -0.25834,0.56864 -1.3125,0.52522 -1.16495,-0.048 -1.4019,-0.28494 -0.60417,-0.60416 z m -38,-1 c 0.72187,-0.28887 1.58438,-0.25335 1.91667,0.0789 0.33229,0.33229 -0.25834,0.56864 -1.3125,0.52522 -1.16495,-0.048 -1.4019,-0.28494 -0.60417,-0.60416 z m -6.0625,-0.97917 c 0.6875,-0.27741 1.8125,-0.27741 2.5,0 0.6875,0.27741 0.125,0.50439 -1.25,0.50439 -1.375,0 -1.9375,-0.22698 -1.25,-0.50439 z M 468,679 c 0.825,-0.53316 1.95,-0.96937 2.5,-0.96937 0.55,0 0.325,0.43621 -0.5,0.96937 -0.825,0.53316 -1.95,0.96937 -2.5,0.96937 -0.55,0 -0.325,-0.43621 0.5,-0.96937 z m -57.1875,-0.68311 c 0.72187,-0.28887 1.58438,-0.25335 1.91667,0.0789 0.33229,0.33229 -0.25834,0.56864 -1.3125,0.52522 -1.16495,-0.048 -1.4019,-0.28494 -0.60417,-0.60416 z m -6,-1 c 0.72187,-0.28887 1.58438,-0.25335 1.91667,0.0789 0.33229,0.33229 -0.25834,0.56864 -1.3125,0.52522 -1.16495,-0.048 -1.4019,-0.28494 -0.60417,-0.60416 z m -6,-1 c 0.72187,-0.28887 1.58438,-0.25335 1.91667,0.0789 0.33229,0.33229 -0.25834,0.56864 -1.3125,0.52522 -1.16495,-0.048 -1.4019,-0.28494 -0.60417,-0.60416 z m -6,-1 c 0.72187,-0.28887 1.58438,-0.25335 1.91667,0.0789 0.33229,0.33229 -0.25834,0.56864 -1.3125,0.52522 -1.16495,-0.048 -1.4019,-0.28494 -0.60417,-0.60416 z m 84.92083,-0.44098 c 0.67834,-0.68342 1.48524,-0.99067 1.79313,-0.68278 0.30789,0.30789 -0.24711,0.86705 -1.23333,1.24258 -1.4252,0.54268 -1.54006,0.42782 -0.5598,-0.5598 z M 387.75,674.33772 c 0.6875,-0.27741 1.8125,-0.27741 2.5,0 0.6875,0.27741 0.125,0.50439 -1.25,0.50439 -1.375,0 -1.9375,-0.22698 -1.25,-0.50439 z m -5.9375,-1.02083 c 0.72187,-0.28887 1.58438,-0.25335 1.91667,0.0789 0.33229,0.33229 -0.25834,0.56864 -1.3125,0.52522 -1.16495,-0.048 -1.4019,-0.28494 -0.60417,-0.60416 z m -6,-1 c 0.72187,-0.28887 1.58438,-0.25335 1.91667,0.0789 0.33229,0.33229 -0.25834,0.56864 -1.3125,0.52522 -1.16495,-0.048 -1.4019,-0.28494 -0.60417,-0.60416 z m -17,-3 c 0.72187,-0.28887 1.58438,-0.25335 1.91667,0.0789 0.33229,0.33229 -0.25834,0.56864 -1.3125,0.52522 -1.16495,-0.048 -1.4019,-0.28494 -0.60417,-0.60416 z M 488.5,668 c 0.99549,-1.1 2.03498,-2 2.30998,-2 0.275,0 -0.31449,0.9 -1.30998,2 -0.99549,1.1 -2.03498,2 -2.30998,2 -0.275,0 0.31449,-0.9 1.30998,-2 z m -135.6875,0.31689 c 0.72187,-0.28887 1.58438,-0.25335 1.91667,0.0789 0.33229,0.33229 -0.25834,0.56864 -1.3125,0.52522 -1.16495,-0.048 -1.4019,-0.28494 -0.60417,-0.60416 z m -6,-1 c 0.72187,-0.28887 1.58438,-0.25335 1.91667,0.0789 0.33229,0.33229 -0.25834,0.56864 -1.3125,0.52522 -1.16495,-0.048 -1.4019,-0.28494 -0.60417,-0.60416 z m -6,-1 c 0.72187,-0.28887 1.58438,-0.25335 1.91667,0.0789 0.33229,0.33229 -0.25834,0.56864 -1.3125,0.52522 -1.16495,-0.048 -1.4019,-0.28494 -0.60417,-0.60416 z m -6.95172,-2.37624 -2.36078,-2.05935 3,1.75669 c 3.94843,2.31206 4.00717,2.36201 2.77745,2.36201 -0.58073,0 -2.11823,-0.92671 -3.41667,-2.05935 z M 493,664.73716 c 0,-0.33565 105.83601,-106.08109 106.78865,-106.69726 0.39124,-0.25305 -23.36207,23.70945 -52.78515,53.25 C 497.12511,661.36745 493,665.45007 493,664.73716 Z m -54.23834,-2.44442 c 1.24391,-0.23919 3.04391,-0.23011 4,0.0202 0.95609,0.25029 -0.0617,0.446 -2.26166,0.4349 -2.2,-0.0111 -2.98225,-0.21589 -1.73834,-0.45508 z m 7.05084,0.0241 c 0.72187,-0.28887 1.58438,-0.25335 1.91667,0.0789 0.33229,0.33229 -0.25834,0.56864 -1.3125,0.52522 -1.16495,-0.048 -1.4019,-0.28494 -0.60417,-0.60416 z m 4,0 c 0.72187,-0.28887 1.58438,-0.25335 1.91667,0.0789 0.33229,0.33229 -0.25834,0.56864 -1.3125,0.52522 -1.16495,-0.048 -1.4019,-0.28494 -0.60417,-0.60416 z M 430.75,661.33772 c 0.6875,-0.27741 1.8125,-0.27741 2.5,0 0.6875,0.27741 0.125,0.50439 -1.25,0.50439 -1.375,0 -1.9375,-0.22698 -1.25,-0.50439 z m 25.0625,-0.0208 c 0.72187,-0.28887 1.58438,-0.25335 1.91667,0.0789 0.33229,0.33229 -0.25834,0.56864 -1.3125,0.52522 -1.16495,-0.048 -1.4019,-0.28494 -0.60417,-0.60416 z m -30,-1 c 0.72187,-0.28887 1.58438,-0.25335 1.91667,0.0789 0.33229,0.33229 -0.25834,0.56864 -1.3125,0.52522 -1.16495,-0.048 -1.4019,-0.28494 -0.60417,-0.60416 z m -6,-1 c 0.72187,-0.28887 1.58438,-0.25335 1.91667,0.0789 0.33229,0.33229 -0.25834,0.56864 -1.3125,0.52522 -1.16495,-0.048 -1.4019,-0.28494 -0.60417,-0.60416 z m -5,-1 c 0.72187,-0.28887 1.58438,-0.25335 1.91667,0.0789 0.33229,0.33229 -0.25834,0.56864 -1.3125,0.52522 -1.16495,-0.048 -1.4019,-0.28494 -0.60417,-0.60416 z M 466,658.28678 c 0.825,-0.30543 2.175,-1.0574 3,-1.67105 1.30346,-0.96954 1.32017,-0.88643 0.12756,0.63427 -0.75485,0.9625 -2.10485,1.71447 -3,1.67105 -1.36145,-0.066 -1.38231,-0.16974 -0.12756,-0.63427 z M 330.15789,656 c 0,-1.375 0.22698,-1.9375 0.50439,-1.25 0.27741,0.6875 0.27741,1.8125 0,2.5 -0.27741,0.6875 -0.50439,0.125 -0.50439,-1.25 z m 78.65461,1.31689 c 0.72187,-0.28887 1.58438,-0.25335 1.91667,0.0789 0.33229,0.33229 -0.25834,0.56864 -1.3125,0.52522 -1.16495,-0.048 -1.4019,-0.28494 -0.60417,-0.60416 z m -7.0625,-0.97917 c 0.6875,-0.27741 1.8125,-0.27741 2.5,0 0.6875,0.27741 0.125,0.50439 -1.25,0.50439 -1.375,0 -1.9375,-0.22698 -1.25,-0.50439 z m -6,-1 c 0.6875,-0.27741 1.8125,-0.27741 2.5,0 0.6875,0.27741 0.125,0.50439 -1.25,0.50439 -1.375,0 -1.9375,-0.22698 -1.25,-0.50439 z m 75.33333,0.37931 c 0.22917,-0.15563 1.31667,-0.94313 2.41667,-1.75 1.85001,-1.35701 1.89707,-1.33579 0.62756,0.28297 -0.75485,0.9625 -1.84235,1.75 -2.41667,1.75 -0.57432,0 -0.85672,-0.12734 -0.62756,-0.28297 z M 390.75,654.33772 c 0.6875,-0.27741 1.8125,-0.27741 2.5,0 0.6875,0.27741 0.125,0.50439 -1.25,0.50439 -1.375,0 -1.9375,-0.22698 -1.25,-0.50439 z m -6,-1 c 0.6875,-0.27741 1.8125,-0.27741 2.5,0 0.6875,0.27741 0.125,0.50439 -1.25,0.50439 -1.375,0 -1.9375,-0.22698 -1.25,-0.50439 z m -4.9375,-1.02083 c 0.72187,-0.28887 1.58438,-0.25335 1.91667,0.0789 0.33229,0.33229 -0.25834,0.56864 -1.3125,0.52522 -1.16495,-0.048 -1.4019,-0.28494 -0.60417,-0.60416 z m 131.6817,-35.06456 35.99072,-36.24767 -18.97499,-18.99472 -18.97499,-18.99472 7.4653,-7.51546 7.46529,-7.51545 19.02693,19.00815 19.02692,19.00816 6.48077,-6.25031 6.48078,-6.25031 -6.47128,6.75979 -6.47129,6.7598 -19.03732,-19.01855 -19.03731,-19.01854 -6.96349,7.01726 -6.96349,7.01726 18.97582,18.99557 18.97583,18.99556 -36.49246,36.24593 L 475.50349,653.5 Z M 372.75,651.33772 c 0.6875,-0.27741 1.8125,-0.27741 2.5,0 0.6875,0.27741 0.125,0.50439 -1.25,0.50439 -1.375,0 -1.9375,-0.22698 -1.25,-0.50439 z m -5,-1 c 0.6875,-0.27741 1.8125,-0.27741 2.5,0 0.6875,0.27741 0.125,0.50439 -1.25,0.50439 -1.375,0 -1.9375,-0.22698 -1.25,-0.50439 z m -5.9375,-1.02083 c 0.72187,-0.28887 1.58438,-0.25335 1.91667,0.0789 0.33229,0.33229 -0.25834,0.56864 -1.3125,0.52522 -1.16495,-0.048 -1.4019,-0.28494 -0.60417,-0.60416 z m -5,-1 c 0.72187,-0.28887 1.58438,-0.25335 1.91667,0.0789 0.33229,0.33229 -0.25834,0.56864 -1.3125,0.52522 -1.16495,-0.048 -1.4019,-0.28494 -0.60417,-0.60416 z m -5,-1 c 0.72187,-0.28887 1.58438,-0.25335 1.91667,0.0789 0.33229,0.33229 -0.25834,0.56864 -1.3125,0.52522 -1.16495,-0.048 -1.4019,-0.28494 -0.60417,-0.60416 z m -23.73355,-1.90022 c 0.048,-1.16495 0.28494,-1.4019 0.60416,-0.60417 0.28887,0.72187 0.25335,1.58438 -0.0789,1.91667 -0.33229,0.33229 -0.56864,-0.25834 -0.52522,-1.3125 z m 20,-5 c 0.048,-1.16495 0.28494,-1.4019 0.60416,-0.60417 0.28887,0.72187 0.25335,1.58438 -0.0789,1.91667 -0.33229,0.33229 -0.56864,-0.25834 -0.52522,-1.3125 z m -21,-1 c 0.048,-1.16495 0.28494,-1.4019 0.60416,-0.60417 0.28887,0.72187 0.25335,1.58438 -0.0789,1.91667 -0.33229,0.33229 -0.56864,-0.25834 -0.52522,-1.3125 z M 347.15789,636 c 0,-1.375 0.22698,-1.9375 0.50439,-1.25 0.27741,0.6875 0.27741,1.8125 0,2.5 -0.27741,0.6875 -0.50439,0.125 -0.50439,-1.25 z m -21,-2 c 0,-1.375 0.22698,-1.9375 0.50439,-1.25 0.27741,0.6875 0.27741,1.8125 0,2.5 -0.27741,0.6875 -0.50439,0.125 -0.50439,-1.25 z m 19.92106,-4.58333 c 0.048,-1.16495 0.28494,-1.4019 0.60416,-0.60417 0.28887,0.72187 0.25335,1.58438 -0.0789,1.91667 -0.33229,0.33229 -0.56864,-0.25834 -0.52522,-1.3125 z m -21,-2 c 0.048,-1.16495 0.28494,-1.4019 0.60416,-0.60417 0.28887,0.72187 0.25335,1.58438 -0.0789,1.91667 -0.33229,0.33229 -0.56864,-0.25834 -0.52522,-1.3125 z m 20,-3 c 0.048,-1.16495 0.28494,-1.4019 0.60416,-0.60417 0.28887,0.72187 0.25335,1.58438 -0.0789,1.91667 -0.33229,0.33229 -0.56864,-0.25834 -0.52522,-1.3125 z M 344.15789,618 c 0,-1.375 0.22698,-1.9375 0.50439,-1.25 0.27741,0.6875 0.27741,1.8125 0,2.5 -0.27741,0.6875 -0.50439,0.125 -0.50439,-1.25 z M 322.6,613.9 c -0.36648,-2.29185 -0.47108,-4.36225 -0.23245,-4.60089 0.23864,-0.23863 0.74824,1.42677 1.13245,3.70089 0.38421,2.27412 0.48881,4.34452 0.23245,4.60089 -0.25637,0.25636 -0.76597,-1.40904 -1.13245,-3.70089 z m 20.55789,-1.9 c 0,-1.375 0.22698,-1.9375 0.50439,-1.25 0.27741,0.6875 0.27741,1.8125 0,2.5 -0.27741,0.6875 -0.50439,0.125 -0.50439,-1.25 z m -1,-5 c 0,-1.375 0.22698,-1.9375 0.50439,-1.25 0.27741,0.6875 0.27741,1.8125 0,2.5 -0.27741,0.6875 -0.50439,0.125 -0.50439,-1.25 z m -21,-2 c 0,-1.375 0.22698,-1.9375 0.50439,-1.25 0.27741,0.6875 0.27741,1.8125 0,2.5 -0.27741,0.6875 -0.50439,0.125 -0.50439,-1.25 z m 20,-4 c 0,-1.375 0.22698,-1.9375 0.50439,-1.25 0.27741,0.6875 0.27741,1.8125 0,2.5 -0.27741,0.6875 -0.50439,0.125 -0.50439,-1.25 z m -21.07894,-1.58333 c 0.048,-1.16495 0.28494,-1.4019 0.60416,-0.60417 0.28887,0.72187 0.25335,1.58438 -0.0789,1.91667 -0.33229,0.33229 -0.56864,-0.25834 -0.52522,-1.3125 z m 20,-4 c 0.048,-1.16495 0.28494,-1.4019 0.60416,-0.60417 0.28887,0.72187 0.25335,1.58438 -0.0789,1.91667 -0.33229,0.33229 -0.56864,-0.25834 -0.52522,-1.3125 z m -21,-2 c 0.048,-1.16495 0.28494,-1.4019 0.60416,-0.60417 0.28887,0.72187 0.25335,1.58438 -0.0789,1.91667 -0.33229,0.33229 -0.56864,-0.25834 -0.52522,-1.3125 z m 20,-4 c 0.048,-1.16495 0.28494,-1.4019 0.60416,-0.60417 0.28887,0.72187 0.25335,1.58438 -0.0789,1.91667 -0.33229,0.33229 -0.56864,-0.25834 -0.52522,-1.3125 z m -21,-2 c 0.048,-1.16495 0.28494,-1.4019 0.60416,-0.60417 0.28887,0.72187 0.25335,1.58438 -0.0789,1.91667 -0.33229,0.33229 -0.56864,-0.25834 -0.52522,-1.3125 z m -0.884,-5.91667 c 0.0204,-1.65 0.2445,-2.20394 0.49804,-1.23097 0.25354,0.97297 0.23687,2.32297 -0.0371,3 -0.27393,0.67703 -0.48137,-0.11903 -0.46099,-1.76903 z m 19.884,-3.08333 c 0.048,-1.16495 0.28494,-1.4019 0.60416,-0.60417 0.28887,0.72187 0.25335,1.58438 -0.0789,1.91667 -0.33229,0.33229 -0.56864,-0.25834 -0.52522,-1.3125 z M 316.15789,576 c 0,-1.375 0.22698,-1.9375 0.50439,-1.25 0.27741,0.6875 0.27741,1.8125 0,2.5 -0.27741,0.6875 -0.50439,0.125 -0.50439,-1.25 z m 19.92106,-3.58333 c 0.048,-1.16495 0.28494,-1.4019 0.60416,-0.60417 0.28887,0.72187 0.25335,1.58438 -0.0789,1.91667 -0.33229,0.33229 -0.56864,-0.25834 -0.52522,-1.3125 z m -21,-2 c 0.048,-1.16495 0.28494,-1.4019 0.60416,-0.60417 0.28887,0.72187 0.25335,1.58438 -0.0789,1.91667 -0.33229,0.33229 -0.56864,-0.25834 -0.52522,-1.3125 z m 20,-4 c 0.048,-1.16495 0.28494,-1.4019 0.60416,-0.60417 0.28887,0.72187 0.25335,1.58438 -0.0789,1.91667 -0.33229,0.33229 -0.56864,-0.25834 -0.52522,-1.3125 z m -21,-2 c 0.048,-1.16495 0.28494,-1.4019 0.60416,-0.60417 0.28887,0.72187 0.25335,1.58438 -0.0789,1.91667 -0.33229,0.33229 -0.56864,-0.25834 -0.52522,-1.3125 z m 20,-4 c 0.048,-1.16495 0.28494,-1.4019 0.60416,-0.60417 0.28887,0.72187 0.25335,1.58438 -0.0789,1.91667 -0.33229,0.33229 -0.56864,-0.25834 -0.52522,-1.3125 z M 313.32814,551.5 c 0.004,-3.85 0.18518,-5.30246 0.40166,-3.2277 0.21647,2.07477 0.21284,5.22477 -0.008,7 -0.22091,1.77524 -0.39803,0.0777 -0.39359,-3.7723 z m 287.75081,-1.08333 c 0.048,-1.16495 0.28494,-1.4019 0.60416,-0.60417 0.28887,0.72187 0.25335,1.58438 -0.0789,1.91667 -0.33229,0.33229 -0.56864,-0.25834 -0.52522,-1.3125 z M 460.8125,545.31689 c 0.72187,-0.28887 1.58438,-0.25335 1.91667,0.0789 0.33229,0.33229 -0.25834,0.56864 -1.3125,0.52522 -1.16495,-0.048 -1.4019,-0.28494 -0.60417,-0.60416 z M 573.99708,520.49708 548.50886,494.99415 673.00292,370.49708 C 741.47466,302.02368 797.72647,246 798.00695,246 c 0.28048,0 -55.51797,56.02256 -123.99655,124.49459 l -124.50651,124.49458 25.4907,25.50542 C 589.01448,534.52256 600.26029,546 599.98529,546 c -0.275,0 -11.96969,-11.47632 -25.98821,-25.50292 z m -239.91813,22.91959 c 0.048,-1.16495 0.28494,-1.4019 0.60416,-0.60417 0.28887,0.72187 0.25335,1.58438 -0.0789,1.91667 -0.33229,0.33229 -0.56864,-0.25834 -0.52522,-1.3125 z M 465.5,543 c 0.99549,-1.1 2.03498,-2 2.30998,-2 0.275,0 -0.31449,0.9 -1.30998,2 -0.99549,1.1 -2.03498,2 -2.30998,2 -0.275,0 0.31449,-0.9 1.30998,-2 z m -14.62756,-0.75 c -1.24387,-1.58606 -1.2085,-1.62143 0.37756,-0.37756 0.9625,0.75485 1.75,1.54235 1.75,1.75 0,0.82304 -0.82119,0.29331 -2.12756,-1.37244 z m -136.79349,-2.83333 c 0.048,-1.16495 0.28494,-1.4019 0.60416,-0.60417 0.28887,0.72187 0.25335,1.58438 -0.0789,1.91667 -0.33229,0.33229 -0.56864,-0.25834 -0.52522,-1.3125 z m 21,-1 c 0.048,-1.16495 0.28494,-1.4019 0.60416,-0.60417 0.28887,0.72187 0.25335,1.58438 -0.0789,1.91667 -0.33229,0.33229 -0.56864,-0.25834 -0.52522,-1.3125 z M 336,534.55902 c 0,-0.79254 0.40803,-1.69316 0.90674,-2.00138 0.49871,-0.30822 0.67122,0.34022 0.38337,1.44098 C 336.6795,536.33361 336,536.62877 336,534.55902 Z M 339.5,527 c 0.85325,-1.65 1.77636,-3 2.05136,-3 0.275,0 -0.19811,1.35 -1.05136,3 -0.85325,1.65 -1.77636,3 -2.05136,3 -0.275,0 0.19811,-1.35 1.05136,-3 z M 455.49362,488.97847 415.5,448.96031 378.75,485.80889 C 358.5375,506.07561 342,522.4228 342,522.13597 c 0,-0.28683 16.52956,-17.09065 36.73235,-37.34181 l 36.73235,-36.82031 40.03339,40.02424 40.03339,40.02424 6.96847,-7.02228 6.96846,-7.02227 -39.97755,-39.98692 -39.97755,-39.98693 7.48417,-7.25196 7.48418,-7.25197 -6.97504,7.26111 -6.97503,7.26111 39.97783,39.9872 39.97783,39.9872 -7.5,7.5 -7.5,7.5 z m 2.77541,36.32854 c 0.97297,-0.25354 2.32297,-0.23687 3,0.0371 0.67703,0.27393 -0.11903,0.48137 -1.76903,0.46099 -1.65,-0.0204 -2.20394,-0.2445 -1.23097,-0.49804 z m -137.70474,-5.60014 c 0.37553,-0.98622 0.93469,-1.54122 1.24258,-1.23333 0.30789,0.30789 6.4e-4,1.11479 -0.68278,1.79313 -0.98762,0.98026 -1.10248,0.8654 -0.5598,-0.5598 z M 323,515 c 0.5887,-1.1 1.29537,-2 1.57037,-2 0.275,0 0.0183,0.9 -0.57037,2 -0.5887,1.1 -1.29537,2 -1.57037,2 -0.275,0 -0.0183,-0.9 0.57037,-2 z m 2,-3.37756 c 0,-0.20765 0.7875,-0.99515 1.75,-1.75 1.58606,-1.24387 1.62143,-1.2085 0.37756,0.37756 C 325.82119,511.91575 325,512.44548 325,511.62244 Z m 4.86381,-6.37244 c 3.81594,-5.2469 109.68723,-110.24998 111.15784,-110.24626 0.81309,0.002 0.12835,0.8552 -1.52165,1.89587 C 435.38795,399.49313 330,505.23934 330,506.77185 330,507.44733 329.51936,508 328.93191,508 c -0.58746,0 -0.1681,-1.2375 0.9319,-2.75 z m 195.1276,-33.75863 -9.4691,-9.50863 24.98628,-24.74137 24.98628,-24.74137 -24.48317,24.74338 -24.48317,24.74339 8.97161,9.01338 8.97162,9.01337 25.01412,-24.75676 L 584.5,430.5 559.5075,455.75 C 545.76163,469.6375 534.50274,481 534.48775,481 c -0.015,0 -4.28834,-4.27888 -9.49634,-9.50863 z M 475.99265,422.25 450.5,396.5 l 25.75,25.49265 c 14.1625,14.02095 25.75,25.60845 25.75,25.75 0,0.70798 -2.31804,-1.56419 -26.00735,-25.49265 z M 550,399.5 c 13.46658,-13.475 24.70969,-24.5 24.98469,-24.5 0.275,0 -10.51811,11.025 -23.98469,24.5 -13.46658,13.475 -24.70969,24.5 -24.98469,24.5 -0.275,0 10.51811,-11.025 23.98469,-24.5 z m 38.47915,8.25 -8.97915,-9.25 9.26011,8.98921 9.26011,8.98922 92.2291,-92.22911 92.22911,-92.2291 -8.98214,-9.26011 -8.98213,-9.26011 9.48853,9.25236 9.48853,9.25237 -92.49358,92.49763 C 640.12617,375.37606 598.26876,417 597.98118,417 c -0.28758,0 -4.5635,-4.1625 -9.50203,-9.25 z M 671.5,306 c 50.59776,-50.6 92.22092,-92 92.49592,-92 0.275,0 -40.89816,41.4 -91.49592,92 -50.59776,50.6 -92.22092,92 -92.49592,92 -0.275,0 40.89816,-41.4 91.49592,-92 z m -223.99292,90.01145 c -0.35034,-0.56686 0.0511,-0.7345 0.94098,-0.39301 1.73242,0.66479 2.04939,1.38156 0.61096,1.38156 -0.51754,0 -1.21592,-0.44485 -1.55194,-0.98855 z M 813.75,251.33772 c 0.6875,-0.27741 1.8125,-0.27741 2.5,0 0.6875,0.27741 0.125,0.50439 -1.25,0.50439 -1.375,0 -1.9375,-0.22698 -1.25,-0.50439 z M 859.5,219 c 14.29207,-14.3 26.21058,-26 26.48558,-26 0.275,0 -11.19351,11.7 -25.48558,26 -14.29207,14.3 -26.21058,26 -26.48558,26 -0.275,0 11.19351,-11.7 25.48558,-26 z m -125,-4 c 8.23625,-8.25 15.19999,-15 15.47499,-15 0.275,0 -6.23874,6.75 -14.47499,15 -8.23625,8.25 -15.19999,15 -15.47499,15 -0.275,0 6.23874,-6.75 14.47499,-15 z m 76.25826,-28.73707 -26.73707,-26.73707 -8.2606,7.97908 -8.26059,7.97908 8.25264,-8.48708 8.25264,-8.48707 27.24507,27.24506 C 826.23513,200.73972 838.27039,213 837.99537,213 c -0.27502,0 -12.53172,-12.03168 -27.23711,-26.73707 z m 13.97104,-15.03351 -26.7568,-26.77058 5.76375,-5.46814 5.76375,-5.46814 -5.25254,5.47936 -5.25254,5.47935 26.74559,26.75937 C 840.45059,185.95829 852.26111,198 851.98611,198 c -0.275,0 -12.54056,-12.04676 -27.25681,-26.77058 z M 887.15789,187 c 0,-1.375 0.22698,-1.9375 0.50439,-1.25 0.27741,0.6875 0.27741,1.8125 0,2.5 -0.27741,0.6875 -0.50439,0.125 -0.50439,-1.25 z m -120.69901,-0.0665 c -0.36253,-0.58659 -0.44468,-1.281 -0.18255,-1.54313 0.26212,-0.26213 0.74306,0.21781 1.06875,1.06653 0.67618,1.76211 0.0998,2.07206 -0.8862,0.4766 z M 745.30987,181.5 c 0.006,-3.3 0.1923,-4.52944 0.41486,-2.73209 0.22256,1.79735 0.21797,4.49735 -0.0102,6 -0.22818,1.50265 -0.41027,0.0321 -0.40466,-3.26791 z M 835.99292,160.25 809.5,133.5 l 26.75,26.49292 c 14.7125,14.57111 26.75,26.60861 26.75,26.75 0,0.70759 -2.38778,-1.63473 -27.00708,-26.49292 z M 747,170.05902 c 0,-0.51754 0.44485,-1.21592 0.98855,-1.55194 0.56686,-0.35034 0.7345,0.0511 0.39301,0.94098 C 747.71677,171.18048 747,171.49745 747,170.05902 Z m 3,-5.43658 c 0,-0.20765 0.7875,-0.99515 1.75,-1.75 1.58606,-1.24387 1.62143,-1.2085 0.37756,0.37756 C 750.82119,164.91575 750,165.44548 750,164.62244 Z M 793,120.5 c 4.65071,-4.675 8.68084,-8.5 8.95584,-8.5 0.275,0 -3.30513,3.825 -7.95584,8.5 -4.65071,4.675 -8.68084,8.5 -8.95584,8.5 -0.275,0 3.30513,-3.825 7.95584,-8.5 z m 13.8125,-11.18311 c 0.72187,-0.28887 1.58438,-0.25335 1.91667,0.0789 0.33229,0.3323 -0.25834,0.56864 -1.3125,0.52522 -1.16495,-0.048 -1.4019,-0.28494 -0.60417,-0.60416 z m 4,0 c 0.72187,-0.28887 1.58438,-0.25335 1.91667,0.0789 0.33229,0.3323 -0.25834,0.56864 -1.3125,0.52522 -1.16495,-0.048 -1.4019,-0.28494 -0.60417,-0.60416 z"
         id="path3970" />
      <path
         style="fill:#f6f6f3"
         d="m 592.8125,1067.3169 c 0.72187,-0.2889 1.58438,-0.2534 1.91667,0.079 0.33229,0.3323 -0.25834,0.5687 -1.3125,0.5253 -1.16495,-0.048 -1.4019,-0.285 -0.60417,-0.6042 z M 545.40499,1050.75 543.5,1048.5 l 2.25,1.905 c 2.11444,1.7902 2.70524,2.595 1.90499,2.595 -0.18976,0 -1.20226,-1.0125 -2.25,-2.25 z M 777.75,1033.3377 c 0.6875,-0.2774 1.8125,-0.2774 2.5,0 0.6875,0.2774 0.125,0.5044 -1.25,0.5044 -1.375,0 -1.9375,-0.227 -1.25,-0.5044 z M 729,1016.5 c 1.29175,-1.375 2.57363,-2.5 2.84863,-2.5 0.275,0 -0.55688,1.125 -1.84863,2.5 -1.29175,1.375 -2.57363,2.5 -2.84863,2.5 -0.275,0 0.55688,-1.125 1.84863,-2.5 z m 326,-16 c 1.8658,-1.925 3.6173,-3.5 3.8923,-3.5 0.275,0 -1.0265,1.575 -2.8923,3.5 -1.8658,1.925 -3.6173,3.5 -3.8923,3.5 -0.275,0 1.0265,-1.575 2.8923,-3.5 z m -335,-9.87756 c 0,-0.20765 0.7875,-0.99515 1.75,-1.75 1.58606,-1.24387 1.62143,-1.2085 0.37756,0.37756 C 720.82119,990.91575 720,991.44548 720,990.62244 Z m 104,-12 c 0,-0.20765 0.7875,-0.99515 1.75,-1.75 1.58606,-1.24387 1.62143,-1.2085 0.37756,0.37756 C 824.82119,978.91575 824,979.44548 824,978.62244 Z m 247.0789,-3.20577 c 0.048,-1.16495 0.285,-1.4019 0.6042,-0.60417 0.2889,0.72187 0.2534,1.58438 -0.079,1.91667 -0.3323,0.33229 -0.5687,-0.25834 -0.5253,-1.3125 z m -243.99995,-6 c 0.048,-1.16495 0.28494,-1.4019 0.60416,-0.60417 0.28887,0.72187 0.25335,1.58438 -0.0789,1.91667 -0.33229,0.33229 -0.56864,-0.25834 -0.52522,-1.3125 z m -183,-5 c 0.048,-1.16495 0.28494,-1.4019 0.60416,-0.60417 0.28887,0.72187 0.25335,1.58438 -0.0789,1.91667 -0.33229,0.33229 -0.56864,-0.25834 -0.52522,-1.3125 z M 864.5,882 c 2.14824,-2.2 4.1309,-4 4.4059,-4 0.275,0 -1.25766,1.8 -3.4059,4 -2.14824,2.2 -4.1309,4 -4.4059,4 -0.275,0 1.25766,-1.8 3.4059,-4 z M 282.07895,769.41667 c 0.048,-1.16495 0.28494,-1.4019 0.60416,-0.60417 0.28887,0.72187 0.25335,1.58438 -0.0789,1.91667 -0.33229,0.33229 -0.56864,-0.25834 -0.52522,-1.3125 z M 282.15789,765 c 0,-1.375 0.22698,-1.9375 0.50439,-1.25 0.27741,0.6875 0.27741,1.8125 0,2.5 -0.27741,0.6875 -0.50439,0.125 -0.50439,-1.25 z M 374,764.68709 c 0,-0.1721 1.4625,-1.6346 3.25,-3.25 l 3.25,-2.93709 -2.93709,3.25 C 374.82513,764.77946 374,765.45965 374,764.68709 Z M 533,756.5 c 1.29175,-1.375 2.57363,-2.5 2.84863,-2.5 0.275,0 -0.55688,1.125 -1.84863,2.5 -1.29175,1.375 -2.57363,2.5 -2.84863,2.5 -0.275,0 0.55688,-1.125 1.84863,-2.5 z M 242.5,744 c 0.99549,-1.1 2.03498,-2 2.30998,-2 0.275,0 -0.31449,0.9 -1.30998,2 -0.99549,1.1 -2.03498,2 -2.30998,2 -0.275,0 0.31449,-0.9 1.30998,-2 z m 171.3125,-0.68311 c 0.72187,-0.28887 1.58438,-0.25335 1.91667,0.0789 0.33229,0.33229 -0.25834,0.56864 -1.3125,0.52522 -1.16495,-0.048 -1.4019,-0.28494 -0.60417,-0.60416 z m 149,-2 c 0.72187,-0.28887 1.58438,-0.25335 1.91667,0.0789 0.33229,0.33229 -0.25834,0.56864 -1.3125,0.52522 -1.16495,-0.048 -1.4019,-0.28494 -0.60417,-0.60416 z M 415,678.89031 c -25.78001,-4.53327 -39.2004,-6.85738 -43.5,-7.53322 -2.42406,-0.38103 -11.84428,-2.0664 -21.5,-3.84656 -0.825,-0.1521 -3.79838,-0.5876 -6.60751,-0.96778 -6.20653,-0.83997 -11.17503,-3.68504 -11.80836,-6.76173 -0.25825,-1.25456 -0.9354,-4.53102 -1.50478,-7.28102 -0.56938,-2.75 -2.18404,-11.975 -3.58814,-20.5 -1.4041,-8.525 -3.43166,-20.225 -4.5057,-26 -1.07404,-5.775 -2.63224,-14.775 -3.46266,-20 -0.83043,-5.225 -2.18779,-13.02709 -3.01636,-17.33797 -4.09967,-21.32976 0.74234,-44.82689 12.28805,-59.63101 6.92162,-8.87503 111.85183,-112.95258 114.53251,-113.60182 4.64615,-1.12527 7.00091,0.78162 33.76667,27.34439 l 25.59373,25.39961 124.22563,-124.26737 c 85.37867,-85.40735 124.06815,-124.75809 123.72201,-125.8366 -0.277,-0.86308 -1.18846,-3.36923 -2.02547,-5.56923 -6.17265,-16.22424 -2.6579,-22.76593 29.69444,-55.26764 35.70687,-35.87172 27.23921,-36.92833 73.44594,9.16468 L 887,182.55782 v 4.4292 4.42919 l -27.1621,27.22808 c -34.23942,34.32259 -41.4871,38.02642 -57.76246,29.51871 l -4.42456,-2.31287 -124.57158,124.57158 -124.57158,124.57158 25.74633,25.76062 c 27.10553,27.12058 28.68638,29.21965 26.22787,34.82569 -1.32801,3.02822 -108.67955,110.53136 -113.98192,114.14289 -20.13797,13.71629 -34.88231,15.60683 -71.5,9.16782 z m 47.2644,-18.66299 c 3.17042,-1.02087 6.29792,-2.38964 6.95,-3.04172 0.65208,-0.65208 1.84812,-1.1856 2.65786,-1.1856 0.80975,0 18.38225,-16.86483 39.05,-37.4774 L 548.5,581.04521 l -18.98163,-19.0141 -18.98162,-19.01409 6.96349,-7.01726 6.96349,-7.01726 19.03537,19.0166 19.03537,19.01659 7.46879,-7.51897 7.4688,-7.51898 -65.98319,-65.98887 C 475.19812,449.69499 445.04233,420 444.47602,420 c -0.56631,0 -4.16048,3.155 -7.98704,7.01111 l -6.95739,7.01111 L 469.5,474 l 39.96841,39.97778 -6.96846,7.02227 -6.96847,7.02228 -40.03339,-40.02424 -40.03339,-40.02424 -36.57445,36.76307 c -51.65943,51.92588 -49.78599,46.45007 -38.412,112.27269 8.68,50.23219 8.60906,49.88995 10.45327,50.43094 2.46286,0.72247 23.53925,4.44811 68.06848,12.03235 8.525,1.45198 16.175,2.8174 17,3.03427 3.57994,0.94106 20.9419,-0.56603 26.2644,-2.27985 z m -6.24384,-115.368 c -6.07473,-2.36336 -8.45349,-8.18765 -5.59871,-13.70819 4.47011,-8.64424 16.94638,-6.28018 18.25263,3.45859 0.92366,6.88638 -6.28672,12.72674 -12.65392,10.2496 z m 118.47804,-122.8479 -9.50249,-9.50248 -24.7369,24.7369 -24.7369,24.7369 9.47528,9.51484 9.47527,9.51484 24.76412,-24.74926 24.76411,-24.74925 z m 116.49197,-97.50199 92.48651,-92.49056 -8.96769,-9.00944 C 769.57716,218.05424 765.08323,214 764.52288,214 763.21456,214 580,397.17018 580,398.47818 580,399.47239 597.01599,417 597.98118,417 c 0.28758,0 42.1418,-41.62076 93.00939,-92.49057 z M 828.67091,221.75 l 9.37161,-9.25 -27.06465,-27 -27.06465,-27 -8.79879,9.03424 c -14.1961,14.576 -14.48655,13.6718 13.27836,41.33676 27.77511,27.67511 25.89618,27.07431 40.27812,12.879 z m 29.34255,-29.26363 5.44514,-5.51363 -26.47222,-26.48637 c -30.1123,-30.12839 -26.83056,-28.05951 -33.71869,-21.25695 l -5.29519,5.22942 26.7568,26.77058 C 839.44555,185.95324 851.72961,198 852.02722,198 c 0.2976,0 2.99141,-2.48113 5.98624,-5.51363 z"
         id="path3969" />
      <path
         style="fill:#f0f0ef"
         d="m 596.76166,1067.2927 c 1.24391,-0.2392 3.04391,-0.2301 4,0.02 0.95609,0.2503 -0.0617,0.446 -2.26166,0.4349 -2.2,-0.011 -2.98225,-0.2159 -1.73834,-0.4551 z m -358.94916,-8.9758 c 0.72187,-0.2889 1.58437,-0.2534 1.91667,0.079 0.33229,0.3323 -0.25834,0.5687 -1.3125,0.5253 -1.16495,-0.048 -1.4019,-0.285 -0.60417,-0.6042 z M 571.15789,1007 c 0,-1.375 0.22698,-1.9375 0.50439,-1.25 0.27741,0.6875 0.27741,1.8125 0,2.5 -0.27741,0.6875 -0.50439,0.125 -0.50439,-1.25 z m 72.92106,-19.58333 c 0.048,-1.16495 0.28494,-1.4019 0.60416,-0.60417 0.28887,0.72187 0.25335,1.58438 -0.0789,1.91667 -0.33229,0.33229 -0.56864,-0.25834 -0.52522,-1.3125 z M 821,981.62244 c 0,-0.20765 0.7875,-0.99515 1.75,-1.75 1.58606,-1.24387 1.62143,-1.2085 0.37756,0.37756 C 821.82119,981.91575 821,982.44548 821,981.62244 Z M 644.15789,968 c 0,-1.375 0.22698,-1.9375 0.50439,-1.25 0.27741,0.6875 0.27741,1.8125 0,2.5 -0.27741,0.6875 -0.50439,0.125 -0.50439,-1.25 z m 322.03706,-14.5 c 0.0204,-1.65 0.2445,-2.20394 0.49804,-1.23097 0.25354,0.97297 0.23687,2.32297 -0.0371,3 -0.27393,0.67703 -0.48137,-0.11903 -0.46099,-1.76903 z M 891,911.62244 c 0,-0.20765 0.7875,-0.99515 1.75,-1.75 1.58606,-1.24387 1.62143,-1.2085 0.37756,0.37756 C 891.82119,911.91575 891,912.44548 891,911.62244 Z M 705.40499,864.75 703.5,862.5 l 2.25,1.90499 c 1.2375,1.04774 2.25,2.06024 2.25,2.25 0,0.80025 -0.80479,0.20945 -2.59501,-1.90499 z M 915.75,858.33772 c 0.6875,-0.27741 1.8125,-0.27741 2.5,0 0.6875,0.27741 0.125,0.50439 -1.25,0.50439 -1.375,0 -1.9375,-0.22698 -1.25,-0.50439 z M 282.19495,773.5 c 0.0204,-1.65 0.2445,-2.20394 0.49804,-1.23097 0.25354,0.97297 0.23687,2.32297 -0.0371,3 -0.27393,0.67703 -0.48137,-0.11903 -0.46099,-1.76903 z m -0.0371,-12.5 c 0,-1.375 0.22698,-1.9375 0.50439,-1.25 0.27741,0.6875 0.27741,1.8125 0,2.5 -0.27741,0.6875 -0.50439,0.125 -0.50439,-1.25 z m 787.92105,-15.58333 c 0.048,-1.16495 0.285,-1.4019 0.6042,-0.60417 0.2889,0.72187 0.2534,1.58438 -0.079,1.91667 -0.3323,0.33229 -0.5687,-0.25834 -0.5253,-1.3125 z m -659.26644,-2.09978 c 0.72187,-0.28887 1.58438,-0.25335 1.91667,0.0789 0.33229,0.33229 -0.25834,0.56864 -1.3125,0.52522 -1.16495,-0.048 -1.4019,-0.28494 -0.60417,-0.60416 z m 149,-2 c 0.72187,-0.28887 1.58438,-0.25335 1.91667,0.0789 0.33229,0.33229 -0.25834,0.56864 -1.3125,0.52522 -1.16495,-0.048 -1.4019,-0.28494 -0.60417,-0.60416 z M 986,710.62244 c 0,-0.20765 0.7875,-0.99515 1.75,-1.75 1.58606,-1.24387 1.62143,-1.2085 0.37756,0.37756 C 986.82119,710.91575 986,711.44548 986,710.62244 Z M 422.8125,696.31689 c 0.72187,-0.28887 1.58438,-0.25335 1.91667,0.0789 0.33229,0.33229 -0.25834,0.56864 -1.3125,0.52522 -1.16495,-0.048 -1.4019,-0.28494 -0.60417,-0.60416 z m 609,-8 c 0.7219,-0.28887 1.5844,-0.25335 1.9167,0.0789 0.3323,0.33229 -0.2584,0.56864 -1.3125,0.52522 -1.165,-0.048 -1.4019,-0.28494 -0.6042,-0.60416 z"
         id="path3968" />
      <path
         style="fill:#ecebea"
         d="m 653,1045.6224 c 0,-0.2076 0.7875,-0.9951 1.75,-1.75 1.58606,-1.2438 1.62143,-1.2085 0.37756,0.3776 -1.30637,1.6657 -2.12756,2.1955 -2.12756,1.3724 z M 662.5,1036 c 0.99549,-1.1 2.03498,-2 2.30998,-2 0.275,0 -0.31449,0.9 -1.30998,2 -0.99549,1.1 -2.03498,2 -2.30998,2 -0.275,0 0.31449,-0.9 1.30998,-2 z m 223.25,-2.6623 c 0.6875,-0.2774 1.8125,-0.2774 2.5,0 0.6875,0.2774 0.125,0.5044 -1.25,0.5044 -1.375,0 -1.9375,-0.227 -1.25,-0.5044 z m 96.01791,-1.0624 c 1.79735,-0.2226 4.49735,-0.218 6,0.01 1.50265,0.2281 0.0321,0.4102 -3.26791,0.4046 -3.3,-0.01 -4.52944,-0.1923 -2.73209,-0.4148 z M 844.40499,1018.75 842.5,1016.5 l 2.25,1.905 c 2.11444,1.7902 2.70524,2.595 1.90499,2.595 -0.18976,0 -1.20226,-1.0125 -2.25,-2.25 z M 638,1016.6224 c 0,-0.2076 0.7875,-0.9951 1.75,-1.75 1.58606,-1.2438 1.62143,-1.2085 0.37756,0.3776 -1.30637,1.6657 -2.12756,2.1955 -2.12756,1.3724 z m 110.07895,-9.2057 c 0.048,-1.165 0.28494,-1.4019 0.60416,-0.6042 0.28887,0.7219 0.25335,1.5844 -0.0789,1.9167 -0.33229,0.3323 -0.56864,-0.2584 -0.52522,-1.3125 z m -177,-4 c 0.048,-1.165 0.28494,-1.4019 0.60416,-0.6042 0.28887,0.7219 0.25335,1.5844 -0.0789,1.9167 -0.33229,0.3323 -0.56864,-0.2584 -0.52522,-1.3125 z m 318.73355,-6.09981 c 0.72187,-0.28887 1.58438,-0.25335 1.91667,0.0789 0.33229,0.33229 -0.25834,0.56864 -1.3125,0.52522 -1.16495,-0.048 -1.4019,-0.28494 -0.60417,-0.60416 z M 644.15789,984 c 0,-1.375 0.22698,-1.9375 0.50439,-1.25 0.27741,0.6875 0.27741,1.8125 0,2.5 -0.27741,0.6875 -0.50439,0.125 -0.50439,-1.25 z M 1029,981.62244 c 0,-0.20765 0.7875,-0.99515 1.75,-1.75 1.5861,-1.24387 1.6214,-1.2085 0.3776,0.37756 -1.3064,1.66575 -2.1276,2.19548 -2.1276,1.37244 z m 4,-4 c 0,-0.20765 0.7875,-0.99515 1.75,-1.75 1.5861,-1.24387 1.6214,-1.2085 0.3776,0.37756 -1.3064,1.66575 -2.1276,2.19548 -2.1276,1.37244 z M 644.25218,973.5 c 0.0111,-2.2 0.21589,-2.98225 0.45508,-1.73834 0.23919,1.24391 0.23011,3.04391 -0.0202,4 -0.25029,0.95609 -0.446,-0.0617 -0.4349,-2.26166 z m 0.82677,-13.08333 c 0.048,-1.16495 0.28494,-1.4019 0.60416,-0.60417 0.28887,0.72187 0.25335,1.58438 -0.0789,1.91667 -0.33229,0.33229 -0.56864,-0.25834 -0.52522,-1.3125 z M 966.232,959 c 0,-1.925 0.2058,-2.7125 0.45733,-1.75 0.25152,0.9625 0.25152,2.5375 0,3.5 -0.25153,0.9625 -0.45733,0.175 -0.45733,-1.75 z m 88.037,0.30701 c 0.973,-0.25354 2.323,-0.23687 3,0.0371 0.6771,0.27393 -0.119,0.48137 -1.769,0.46099 -1.65,-0.0204 -2.2039,-0.2445 -1.231,-0.49804 z m -125.99997,-66 c 0.97297,-0.25354 2.32297,-0.23687 3,0.0371 0.67703,0.27393 -0.11903,0.48137 -1.76903,0.46099 -1.65,-0.0204 -2.20394,-0.2445 -1.23097,-0.49804 z M 774,865.62244 c 0,-0.20765 0.7875,-0.99515 1.75,-1.75 1.58606,-1.24387 1.62143,-1.2085 0.37756,0.37756 C 774.82119,865.91575 774,866.44548 774,865.62244 Z M 440.29966,784 c 0,-3.025 0.18747,-4.2625 0.41659,-2.75 0.22913,1.5125 0.22913,3.9875 0,5.5 -0.22912,1.5125 -0.41659,0.275 -0.41659,-2.75 z m -158.22071,-6.58333 c 0.048,-1.16495 0.28494,-1.4019 0.60416,-0.60417 0.28887,0.72187 0.25335,1.58438 -0.0789,1.91667 -0.33229,0.33229 -0.56864,-0.25834 -0.52522,-1.3125 z M 182.15789,773 c 0,-1.375 0.22698,-1.9375 0.50439,-1.25 0.27741,0.6875 0.27741,1.8125 0,2.5 -0.27741,0.6875 -0.50439,0.125 -0.50439,-1.25 z m 293,-3 c 0,-1.375 0.22698,-1.9375 0.50439,-1.25 0.27741,0.6875 0.27741,1.8125 0,2.5 -0.27741,0.6875 -0.50439,0.125 -0.50439,-1.25 z M 320.19495,754.5 c 0.0204,-1.65 0.2445,-2.20394 0.49804,-1.23097 0.25354,0.97297 0.23687,2.32297 -0.0371,3 -0.27393,0.67703 -0.48137,-0.11903 -0.46099,-1.76903 z m 154.884,-4.08333 c 0.048,-1.16495 0.28494,-1.4019 0.60416,-0.60417 0.28887,0.72187 0.25335,1.58438 -0.0789,1.91667 -0.33229,0.33229 -0.56864,-0.25834 -0.52522,-1.3125 z M 320.15789,743 c 0,-1.375 0.22698,-1.9375 0.50439,-1.25 0.27741,0.6875 0.27741,1.8125 0,2.5 -0.27741,0.6875 -0.50439,0.125 -0.50439,-1.25 z m 98.65461,0.31689 c 0.72187,-0.28887 1.58438,-0.25335 1.91667,0.0789 0.33229,0.33229 -0.25834,0.56864 -1.3125,0.52522 -1.16495,-0.048 -1.4019,-0.28494 -0.60417,-0.60416 z M 1070.232,741 c 0,-1.925 0.2058,-2.7125 0.4573,-1.75 0.2516,0.9625 0.2516,2.5375 0,3.5 -0.2515,0.9625 -0.4573,0.175 -0.4573,-1.75 z m -0.1531,-14.58333 c 0.048,-1.16495 0.285,-1.4019 0.6042,-0.60417 0.2889,0.72187 0.2534,1.58438 -0.079,1.91667 -0.3323,0.33229 -0.5687,-0.25834 -0.5253,-1.3125 z M 989,707.62244 c 0,-0.20765 0.7875,-0.99515 1.75,-1.75 1.58606,-1.24387 1.62143,-1.2085 0.37756,0.37756 C 989.82119,707.91575 989,708.44548 989,707.62244 Z M 427.26375,696.28242 c 1.52006,-0.22986 3.77006,-0.22371 5,0.0136 1.22994,0.23736 -0.0138,0.42542 -2.76375,0.41792 -2.75,-0.008 -3.75631,-0.20172 -2.23625,-0.43157 z M 266.8125,695.31689 c 0.72187,-0.28887 1.58438,-0.25335 1.91667,0.0789 0.33229,0.33229 -0.25834,0.56864 -1.3125,0.52522 -1.16495,-0.048 -1.4019,-0.28494 -0.60417,-0.60416 z m 4.45653,-0.01 c 0.97297,-0.25354 2.32297,-0.23687 3,0.0371 0.67703,0.27393 -0.11903,0.48137 -1.76903,0.46099 -1.65,-0.0204 -2.20394,-0.2445 -1.23097,-0.49804 z"
         id="path3967" />
      <path
         style="fill:#e5e3e1"
         d="m 252.5,1052 c 0.99549,-1.1 2.03498,-2 2.30998,-2 0.275,0 -0.31449,0.9 -1.30998,2 -0.99549,1.1 -2.03498,2 -2.30998,2 -0.275,0 0.31449,-0.9 1.30998,-2 z M 658,1040.5 c 1.29175,-1.375 2.57363,-2.5 2.84863,-2.5 0.275,0 -0.55688,1.125 -1.84863,2.5 -1.29175,1.375 -2.57363,2.5 -2.84863,2.5 -0.275,0 0.55688,-1.125 1.84863,-2.5 z m 217.8125,-7.1831 c 0.72187,-0.2889 1.58438,-0.2534 1.91667,0.079 0.33229,0.3323 -0.25834,0.5687 -1.3125,0.5253 -1.16495,-0.048 -1.4019,-0.285 -0.60417,-0.6042 z m 7,0 c 0.72187,-0.2889 1.58438,-0.2534 1.91667,0.079 0.33229,0.3323 -0.25834,0.5687 -1.3125,0.5253 -1.16495,-0.048 -1.4019,-0.285 -0.60417,-0.6042 z M 678.75,1032.3377 c 0.6875,-0.2774 1.8125,-0.2774 2.5,0 0.6875,0.2774 0.125,0.5044 -1.25,0.5044 -1.375,0 -1.9375,-0.227 -1.25,-0.5044 z m 18.0625,-0.021 c 0.72187,-0.2889 1.58438,-0.2534 1.91667,0.079 0.33229,0.3323 -0.25834,0.5687 -1.3125,0.5253 -1.16495,-0.048 -1.4019,-0.285 -0.60417,-0.6042 z m 75.45653,-0.01 c 0.97297,-0.2535 2.32297,-0.2369 3,0.037 0.67703,0.2739 -0.11903,0.4813 -1.76903,0.461 -1.65,-0.02 -2.20394,-0.2445 -1.23097,-0.4981 z m 10.48097,0.031 c 0.6875,-0.2774 1.8125,-0.2774 2.5,0 0.6875,0.2774 0.125,0.5044 -1.25,0.5044 -1.375,0 -1.9375,-0.227 -1.25,-0.5044 z m -184.5,-1.027 c 0.9625,-0.2516 2.5375,-0.2516 3.5,0 0.9625,0.2515 0.175,0.4573 -1.75,0.4573 -1.925,0 -2.7125,-0.2058 -1.75,-0.4573 z M 922,1016.6224 c 0,-0.2076 0.7875,-0.9951 1.75,-1.75 1.58606,-1.2438 1.62143,-1.2085 0.37756,0.3776 -1.30637,1.6657 -2.12756,2.1955 -2.12756,1.3724 z m -277,-7 c 0,-0.2076 0.7875,-0.9951 1.75,-1.75 1.58606,-1.2438 1.62143,-1.2085 0.37756,0.3776 -1.30637,1.6657 -2.12756,2.1955 -2.12756,1.3724 z M 748.25218,1002.5 c 0.0111,-2.2 0.21589,-2.98225 0.45508,-1.7383 0.23919,1.2439 0.23011,3.0439 -0.0202,4 -0.25029,0.956 -0.446,-0.062 -0.4349,-2.2617 z M 749.232,992 c 0,-1.925 0.2058,-2.7125 0.45733,-1.75 0.25152,0.9625 0.25152,2.5375 0,3.5 -0.25153,0.9625 -0.45733,0.175 -0.45733,-1.75 z m 126.17299,0.75 -1.90499,-2.25 2.25,1.90499 c 2.11444,1.79022 2.70524,2.59501 1.90499,2.59501 -0.18976,0 -1.20226,-1.0125 -2.25,-2.25 z M 726.5,985 c 0.99549,-1.1 2.03498,-2 2.30998,-2 0.275,0 -0.31449,0.9 -1.30998,2 -0.99549,1.1 -2.03498,2 -2.30998,2 -0.275,0 0.31449,-0.9 1.30998,-2 z m 299.5,-0.37756 c 0,-0.20765 0.7875,-0.99515 1.75,-1.75 1.5861,-1.24387 1.6214,-1.2085 0.3776,0.37756 -1.3064,1.66575 -2.1276,2.19548 -2.1276,1.37244 z M 644.19495,979.5 c 0.0204,-1.65 0.2445,-2.20394 0.49804,-1.23097 0.25354,0.97297 0.23687,2.32297 -0.0371,3 -0.27393,0.67703 -0.48137,-0.11903 -0.46099,-1.76903 z m 139.884,-2.08333 c 0.048,-1.16495 0.28494,-1.4019 0.60416,-0.60417 0.28887,0.72187 0.25335,1.58438 -0.0789,1.91667 -0.33229,0.33229 -0.56864,-0.25834 -0.52522,-1.3125 z M 681.28601,973.5 c 0.008,-2.75 0.20172,-3.75631 0.43157,-2.23625 0.22986,1.52006 0.22371,3.77006 -0.0136,5 -0.23736,1.22994 -0.42542,-0.0137 -0.41792,-2.76375 z M 1037.5,973 c 0.9955,-1.1 2.035,-2 2.31,-2 0.275,0 -0.3145,0.9 -1.31,2 -0.9955,1.1 -2.035,2 -2.31,2 -0.275,0 0.3145,-0.9 1.31,-2 z m -169.268,-3 c 0,-1.925 0.2058,-2.7125 0.45733,-1.75 0.25152,0.9625 0.25152,2.5375 0,3.5 -0.25153,0.9625 -0.45733,0.175 -0.45733,-1.75 z m 97.92589,-6 c 0,-1.375 0.22698,-1.9375 0.50439,-1.25 0.27741,0.6875 0.27741,1.8125 0,2.5 -0.27741,0.6875 -0.50439,0.125 -0.50439,-1.25 z m -321.07894,-0.58333 c 0.048,-1.16495 0.28494,-1.4019 0.60416,-0.60417 0.28887,0.72187 0.25335,1.58438 -0.0789,1.91667 -0.33229,0.33229 -0.56864,-0.25834 -0.52522,-1.3125 z m 63,-93 c 0.048,-1.16495 0.28494,-1.4019 0.60416,-0.60417 0.28887,0.72187 0.25335,1.58438 -0.0789,1.91667 -0.33229,0.33229 -0.56864,-0.25834 -0.52522,-1.3125 z M 467,819.5 c 0,-0.825 0.43588,-1.5 0.96862,-1.5 0.53273,0 0.70959,0.675 0.39301,1.5 -0.31659,0.825 -0.75246,1.5 -0.96862,1.5 C 467.17686,821 467,820.325 467,819.5 Z m -26.92105,-29.08333 c 0.048,-1.16495 0.28494,-1.4019 0.60416,-0.60417 0.28887,0.72187 0.25335,1.58438 -0.0789,1.91667 -0.33229,0.33229 -0.56864,-0.25834 -0.52522,-1.3125 z M 182.15789,777 c 0,-1.375 0.22698,-1.9375 0.50439,-1.25 0.27741,0.6875 0.27741,1.8125 0,2.5 -0.27741,0.6875 -0.50439,0.125 -0.50439,-1.25 z m 258,0 c 0,-1.375 0.22698,-1.9375 0.50439,-1.25 0.27741,0.6875 0.27741,1.8125 0,2.5 -0.27741,0.6875 -0.50439,0.125 -0.50439,-1.25 z m 35.03706,-11.5 c 0.0204,-1.65 0.2445,-2.20394 0.49804,-1.23097 0.25354,0.97297 0.23687,2.32297 -0.0371,3 -0.27393,0.67703 -0.48137,-0.11903 -0.46099,-1.76903 z M 475.232,755 c 0,-1.925 0.2058,-2.7125 0.45733,-1.75 0.25152,0.9625 0.25152,2.5375 0,3.5 -0.25153,0.9625 -0.45733,0.175 -0.45733,-1.75 z m 558.8469,-1.58333 c 0.048,-1.16495 0.285,-1.4019 0.6042,-0.60417 0.2889,0.72187 0.2534,1.58438 -0.079,1.91667 -0.3323,0.33229 -0.5687,-0.25834 -0.5253,-1.3125 z M 320.25218,748.5 c 0.0111,-2.2 0.21589,-2.98225 0.45508,-1.73834 0.23919,1.24391 0.23011,3.04391 -0.0202,4 -0.25029,0.95609 -0.446,-0.0617 -0.4349,-2.26166 z M 1034.1579,748 c 0,-1.375 0.227,-1.9375 0.5044,-1.25 0.2774,0.6875 0.2774,1.8125 0,2.5 -0.2774,0.6875 -0.5044,0.125 -0.5044,-1.25 z m 36.1418,-15 c 0,-3.025 0.1874,-4.2625 0.4166,-2.75 0.2291,1.5125 0.2291,3.9875 0,5.5 -0.2292,1.5125 -0.4166,0.275 -0.4166,-2.75 z M 515.5,732 c 0.99549,-1.1 2.03498,-2 2.30998,-2 0.275,0 -0.31449,0.9 -1.30998,2 -0.99549,1.1 -2.03498,2 -2.30998,2 -0.275,0 0.31449,-0.9 1.30998,-2 z m -251.75,0.33772 c 0.6875,-0.27741 1.8125,-0.27741 2.5,0 0.6875,0.27741 0.125,0.50439 -1.25,0.50439 -1.375,0 -1.9375,-0.22698 -1.25,-0.50439 z m 760.0625,-1.02083 c 0.7219,-0.28887 1.5844,-0.25335 1.9167,0.0789 0.3323,0.33229 -0.2584,0.56864 -1.3125,0.52522 -1.165,-0.048 -1.4019,-0.28494 -0.6042,-0.60416 z M 200,730.62244 c 0,-0.20765 0.7875,-0.99515 1.75,-1.75 1.58606,-1.24387 1.62143,-1.2085 0.37756,0.37756 C 200.82119,730.91575 200,731.44548 200,730.62244 Z M 366,722.5 c 1.86578,-1.925 3.61733,-3.5 3.89233,-3.5 0.275,0 -1.02655,1.575 -2.89233,3.5 -1.86578,1.925 -3.61733,3.5 -3.89233,3.5 -0.275,0 1.02655,-1.575 2.89233,-3.5 z M 208.5,722 c 0.99549,-1.1 2.03498,-2 2.30998,-2 0.275,0 -0.31449,0.9 -1.30998,2 -0.99549,1.1 -2.03498,2 -2.30998,2 -0.275,0 0.31449,-0.9 1.30998,-2 z m 316.5,0.62244 c 0,-0.20765 0.7875,-0.99515 1.75,-1.75 1.58606,-1.24387 1.62143,-1.2085 0.37756,0.37756 C 525.82119,722.91575 525,723.44548 525,722.62244 Z M 459.43709,707.75 456.5,704.5 l 3.25,2.93709 c 3.02946,2.73778 3.70965,3.56291 2.93709,3.56291 -0.1721,0 -1.6346,-1.4625 -3.25,-3.25 z"
         id="path3966" />
      <path
         style="fill:#e2e0de"
         d="m 693.8125,1032.3169 c 0.72187,-0.2889 1.58438,-0.2534 1.91667,0.079 0.33229,0.3323 -0.25834,0.5687 -1.3125,0.5253 -1.16495,-0.048 -1.4019,-0.285 -0.60417,-0.6042 z m 86,0 c 0.72187,-0.2889 1.58438,-0.2534 1.91667,0.079 0.33229,0.3323 -0.25834,0.5687 -1.3125,0.5253 -1.16495,-0.048 -1.4019,-0.285 -0.60417,-0.6042 z M 665,1028 c -1.2819,-0.8284 -1.24555,-0.9716 0.25,-0.9847 0.9625,-0.01 1.75,0.4347 1.75,0.9847 0,1.2196 -0.11279,1.2196 -2,0 z m 56,-5.3776 c 0,-0.2076 0.7875,-0.9951 1.75,-1.75 1.58606,-1.2438 1.62143,-1.2085 0.37756,0.3776 -1.30637,1.6657 -2.12756,2.1955 -2.12756,1.3724 z M 732,1012.5 c 1.29175,-1.375 2.57363,-2.5 2.84863,-2.5 0.275,0 -0.55688,1.125 -1.84863,2.5 -1.29175,1.375 -2.57363,2.5 -2.84863,2.5 -0.275,0 0.55688,-1.125 1.84863,-2.5 z m -84,-5.559 c 0,-0.5825 0.45,-0.7809 1,-0.441 0.55,0.3399 1,0.8165 1,1.059 0,0.2426 -0.45,0.441 -1,0.441 -0.55,0 -1,-0.4766 -1,-1.059 z M 1049.5,1005 c 0.9955,-1.1 2.035,-2 2.31,-2 0.275,0 -0.3145,0.9 -1.31,2 -0.9955,1.1 -2.035,2 -2.31,2 -0.275,0 0.3145,-0.9 1.31,-2 z m -362.62756,-9.75 c -1.24387,-1.58606 -1.2085,-1.62143 0.37756,-0.37756 0.9625,0.75485 1.75,1.54235 1.75,1.75 0,0.82304 -0.82119,0.29331 -2.12756,-1.37244 z M 822,981.68709 c 0,-0.1721 1.4625,-1.6346 3.25,-3.25 l 3.25,-2.93709 -2.93709,3.25 C 822.82513,981.77946 822,982.45965 822,981.68709 Z m -36.92105,-12.27042 c 0.048,-1.16495 0.28494,-1.4019 0.60416,-0.60417 0.28887,0.72187 0.25335,1.58438 -0.0789,1.91667 -0.33229,0.33229 -0.56864,-0.25834 -0.52522,-1.3125 z M 675.5,865 c 0.99549,-1.1 2.03498,-2 2.30998,-2 0.275,0 -0.31449,0.9 -1.30998,2 -0.99549,1.1 -2.03498,2 -2.30998,2 -0.275,0 0.31449,-0.9 1.30998,-2 z m 13.3125,-5.68311 c 0.72187,-0.28887 1.58438,-0.25335 1.91667,0.0789 0.33229,0.33229 -0.25834,0.56864 -1.3125,0.52522 -1.16495,-0.048 -1.4019,-0.28494 -0.60417,-0.60416 z M 189.40499,793.75 187.5,791.5 l 2.25,1.90499 c 2.11444,1.79022 2.70524,2.59501 1.90499,2.59501 -0.18976,0 -1.20226,-1.0125 -2.25,-2.25 z M 475.19495,760.5 c 0.0204,-1.65 0.2445,-2.20394 0.49804,-1.23097 0.25354,0.97297 0.23687,2.32297 -0.0371,3 -0.27393,0.67703 -0.48137,-0.11903 -0.46099,-1.76903 z M 1007,739.62244 c 0,-0.20765 0.7875,-0.99515 1.75,-1.75 1.5861,-1.24387 1.6214,-1.2085 0.3776,0.37756 -1.3064,1.66575 -2.1276,2.19548 -2.1276,1.37244 z M 519.5,728 c 0.99549,-1.1 2.03498,-2 2.30998,-2 0.275,0 -0.31449,0.9 -1.30998,2 -0.99549,1.1 -2.03498,2 -2.30998,2 -0.275,0 0.31449,-0.9 1.30998,-2 z m 94.37244,-20.75 c -1.24387,-1.58606 -1.2085,-1.62143 0.37756,-0.37756 0.9625,0.75485 1.75,1.54235 1.75,1.75 0,0.82304 -0.82119,0.29331 -2.12756,-1.37244 z"
         id="path3965" />
      <path
         style="fill:#e0dedc"
         d="m 587,1066.5312 c -0.825,-0.193 -4.875,-0.8959 -9,-1.5619 C 522.14523,1055.9512 518.48672,1018.3757 560.47741,885 596.35259,771.04917 596.97499,741.5 563.5,741.5 c -40.31553,0 -82.66813,82.61265 -134.43048,262.2191 -15.20623,52.7629 -26.89069,61.4194 -52.98846,39.2566 l -3.41893,-2.9034 29.66541,-99.28879 c 29.51261,-98.77738 33.04488,-111.58379 36.333,-131.72712 14.52113,-88.95776 -48.42703,-89.3926 -94.25426,-0.6511 -23.26248,45.04629 -64.69869,157.44704 -80.39998,218.09471 -7.1869,27.7601 -17.91441,36.2406 -37.37384,29.5456 -6.54684,-2.2525 -18.85608,-10.0052 -18.29247,-11.5211 0.66558,-1.7903 52.35678,-168.50319 56.12866,-181.0245 20.97979,-69.64555 24.23037,-119.67767 8.37852,-128.96 -17.5357,-10.26834 -41.84273,14.25936 -56.44754,56.96 -4.72816,13.82391 -6.01014,14.62585 -15.88788,9.93855 C 154.22791,779.47543 205.0475,699.09374 267,696.27363 c 53.59391,-2.43962 65.3913,35.7363 39.59311,128.12182 -3.38331,12.11594 -2.13436,10.14797 6.88287,-10.8453 C 350.39605,727.59553 379.881,697.46018 427,697.52198 c 43.25648,0.0567 57.55358,36.23822 42.96991,108.74347 -1.63345,8.12099 -2.95428,15.09599 -2.93519,15.5 0.0191,0.404 2.19144,-5.11545 4.82742,-12.26545 30.73679,-83.37241 87.75979,-129.21659 133.66893,-107.46439 35.85481,16.98837 34.52071,63.47954 -5.41193,188.59713 -24.45394,76.61946 -32.57408,113.76836 -27.4165,125.42796 9.5424,21.5722 44.47206,20.898 67.90699,-1.3107 3.91748,-3.7125 7.60151,-6.75 8.18673,-6.75 0.74901,0 0.75338,-0.9622 0.0148,-3.25 -8.06978,-24.99556 -3.24357,-63.536 14.05646,-112.25 9.50493,-26.7643 14.33542,-32.5 27.37086,-32.5 15.84244,0 20.84264,8.26358 14.2196,23.5 -13.58316,31.24836 -25.27215,82.28998 -22.57931,98.59577 5.49759,33.28913 43.19268,18.66123 63.13288,-24.4992 4.85946,-10.51829 7.90674,-20.58535 18.03978,-59.59657 8.04773,-30.98295 12.96312,-38.19512 25.9891,-38.13282 16.30495,0.078 21.07813,8.72196 14.98268,27.13282 -10.87731,32.8541 -20.61527,82.85861 -20.11592,103.29545 0.32314,13.22485 16.29461,10.38675 35.84274,-6.3692 l 8.25,-7.07161 v -6.54898 c 0,-55.14453 44.32924,-111.57019 87.40996,-111.26211 5.56481,0.0398 8.10109,0.40069 17.1432,2.43934 l 3.05317,0.68838 1.74226,-11.83564 c 14.05407,-95.47291 43.16434,-151.34599 83.28048,-159.8452 55.8052,-11.82316 66.7334,55.6253 22.5228,139.00957 -17.491,32.9894 -27.9923,49.74118 -61.1199,97.5 l -16.30066,23.5 0.54979,11 c 2.57688,51.5578 36.15387,52.8517 79.40417,3.05991 l 4.1853,-4.8183 5.4925,0.45548 c 30.3792,2.51928 10.3568,42.14051 -31.7504,62.82911 -35.26598,17.3272 -66.65122,10.424 -83.60649,-18.3895 -5.4314,-9.23 -4.69661,-9.19958 -9.23894,-0.3824 -18.36696,35.6524 -81.56986,38.8378 -92.95416,4.6849 -0.2145,-0.6434 -3.74144,0.9682 -8.34234,3.8122 -50.19904,31.0293 -83.06343,24.8573 -80.05602,-15.03469 0.81929,-10.86739 0.0617,-12.33843 -2.97676,-5.78019 -14.21266,30.67658 -47.10066,47.81108 -73.7779,38.43788 l -3.83993,-1.3491 -7.66007,8.1429 C 640.3583,1059.2812 609.02838,1071.686 587,1066.5312 Z M 667,1028 c 0,-0.55 -0.7875,-0.9931 -1.75,-0.9847 -1.49555,0.013 -1.5319,0.1563 -0.25,0.9847 1.88721,1.2196 2,1.2196 2,0 z m 233.61734,-32.80478 c 14.38453,-7.33844 20.48494,-23.27229 28.6934,-74.94522 l 4.32878,-27.25 -3.56976,0.0148 c -35.01408,0.14498 -67.25137,44.58173 -61.10082,84.223 2.79881,18.03875 16.38187,25.7458 31.6484,17.95744 z m 76.38358,-109.43689 c 49.82428,-76.95683 72.27848,-145.47782 50.39878,-153.79645 -18.6893,-7.10569 -38.48397,30.65171 -49.3219,94.07943 -2.75679,16.13386 -11.13631,72.15576 -11.03326,73.76374 0.0626,0.97698 1.99086,-1.74345 9.95638,-14.04672 z"
         id="path3964" />
    </g>
  </g>
</svg>
